<?xml version="1.0" standalone="no"?>
<!DOCTYPE svg PUBLIC "-//W3C//DTD SVG 1.1//EN" "http://www.w3.org/Graphics/SVG/1.1/DTD/svg11.dtd" >
<svg xmlns="http://www.w3.org/2000/svg">
<metadata>Generated by IcoMoon</metadata>
<defs>
<font id="XRXS1" horiz-adv-x="1024">
<font-face units-per-em="1024" ascent="960" descent="-64" />
<missing-glyph horiz-adv-x="1024" />
<glyph unicode="&#x20;" horiz-adv-x="512" d="" />
<glyph unicode="&#xe900;" glyph-name="unrelated" d="M395.264 789.163c36.864-10.24 67.584-36.864 88.064-73.728l100.352-172.032c4.096-6.144 10.24-10.24 18.432-12.288s14.336 0 20.48 4.096c6.144 4.096 10.24 10.24 12.288 18.432s0 14.336-4.096 20.48l-100.352 172.032c-22.528 40.96-63.488 77.824-114.688 98.304-20.48 8.192-43.008 12.288-61.44 12.288-28.672 0-53.248-6.144-73.728-20.48-43.008-28.672-73.728-73.728-83.968-122.88-10.24-47.104-2.048-96.256 24.576-147.456l100.352-172.032c4.096-8.192 12.288-12.288 20.48-12.288 4.096 0 8.192 0 12.288 4.096 6.144 4.096 12.288 10.24 12.288 18.432 2.048 8.192 0 14.336-4.096 20.48l-100.352 172.032c-16.384 30.72-20.48 71.68-16.384 108.544 4.096 32.768 24.576 61.44 53.248 79.872 30.72 14.336 61.44 16.384 96.256 4.096zM411.648 291.499c-6.144-4.096-10.24-10.24-12.288-18.432s0-14.336 4.096-20.48l86.016-151.552c22.528-40.96 63.488-75.776 114.688-98.304 18.432-4.096 38.912-10.24 59.392-10.24 32.768 0 55.296 6.144 77.824 20.48 40.96 26.624 69.632 65.536 77.824 112.64 10.24 47.104 2.048 96.256-24.576 147.456l-86.016 161.792c-4.096 6.144-10.24 10.24-18.432 12.288-6.144 2.048-14.336 0-20.48-4.096s-10.24-10.24-12.288-18.432c-2.048-6.144 0-14.336 4.096-20.48l86.016-151.552c20.48-34.816 26.624-69.632 20.48-108.544-4.096-32.768-24.576-61.44-53.248-79.872-24.576-14.336-61.44-16.384-94.208-6.144s-61.44 32.768-83.968 73.728l-86.016 151.552c-6.144 8.192-14.336 12.288-24.576 12.288-4.096 0-10.24-2.048-14.336-4.096zM722.944 520.875l151.552 92.16c12.288 8.192 16.384 26.624 8.192 38.912s-26.624 16.384-38.912 8.192l-147.456-90.112c-14.336-12.288-12.288-26.624-4.096-40.96 4.096-8.192 12.288-12.288 20.48-12.288 4.096 0 6.144 0 10.24 4.096zM978.944 381.611v0l-186.368 71.68c-8.192 2.048-16.384 2.048-22.528-2.048s-10.24-8.192-10.24-14.336c-2.048-8.192-2.048-16.384 2.048-22.528s8.192-10.24 14.336-10.24l186.368-69.632 8.192-2.048c14.336 0 22.528 14.336 26.624 20.48 2.048 6.144 0 12.288-2.048 18.432-6.144 2.048-12.288 8.192-16.384 10.24zM706.56 846.507c2.048 6.144 0 14.336-4.096 20.48s-10.24 10.24-16.384 10.24h-2.048c-6.144 2.048-12.288 0-18.432-4.096s-10.24-10.24-10.24-16.384l-34.816-192.512c-2.048-18.432 4.096-28.672 20.48-32.768l10.24-2.048c12.288 0 22.528 8.192 24.576 20.48l30.72 196.608zM145.408 185.003c4.096 0 8.192 0 12.288 4.096l151.552 92.16c12.288 4.096 16.384 20.48 12.288 32.768-4.096 6.144-10.24 10.24-16.384 12.288-2.048 0-4.096 0-6.144 0-6.144 0-10.24-2.048-14.336-4.096l-151.552-90.112c-12.288-8.192-16.384-26.624-8.192-38.912v-4.096c2.048 0 12.288-4.096 20.48-4.096zM368.64 209.579v0c-2.048 0-4.096 0-6.144 0-4.096 0-10.24-2.048-14.336-4.096-6.144-4.096-10.24-10.24-10.24-16.384l-34.816-192.512c0-8.192 2.048-28.672 24.576-28.672h4.096c12.288 0 24.576 8.192 24.576 20.48l34.816 192.512c2.048 10.24-6.144 28.672-22.528 28.672zM258.048 408.235c2.048 6.144 2.048 16.384-2.048 22.528s-8.192 10.24-14.336 10.24l-182.272 67.584c-4.096 0-6.144 0-10.24 0s-8.192-2.048-12.288-4.096c-6.144-4.096-10.24-8.192-10.24-14.336-2.048-8.192-2.048-16.384 2.048-22.528s8.192-10.24 14.336-10.24l182.272-69.632c6.144 0 6.144 0 10.24 0 10.24 2.048 20.48 16.384 22.528 20.48z" />
<glyph unicode="&#xe901;" glyph-name="correlation" d="M522.073 483.076c4.029-12.088 20.146-16.117 34.248-12.088l34.248 20.146c24.175 14.102 44.321 40.292 52.38 68.496 4.029 34.248 4.029 62.453-14.102 90.657l-112.817 193.401c-14.102 24.175-40.292 44.321-68.496 52.38-8.058 2.015-20.146 2.015-32.234 2.015-18.131 0-38.277-2.015-54.394-12.088l-191.387-108.788c-26.19-16.117-44.321-40.292-52.38-72.525-4.029-28.204 0-58.423 14.102-86.628l110.803-193.401c18.131-36.263 56.409-58.423 102.744-58.423 20.146 0 38.277 4.029 58.423 14.102l30.219 20.146c12.088 8.058 16.117 26.19 8.058 38.277-10.073 8.058-22.161 12.088-34.248 8.058l-36.263-20.146c-26.19-16.117-66.482-6.044-88.642 22.161l-112.817 193.401c-6.044 16.117-12.088 34.248-6.044 50.365 4.029 14.102 16.117 32.234 28.204 38.277l193.401 110.803c14.102 10.073 32.234 12.088 50.365 6.044 16.117-6.044 28.204-16.117 38.277-26.19v-2.015l110.803-193.401c10.073-14.102 12.088-32.234 6.044-50.365-6.044-16.117-16.117-28.204-26.19-38.277h-2.015l-36.263-20.146c-2.015-4.029-16.117-14.102-4.029-34.248v0zM423.358 340.039c-54.394-34.248-72.525-100.73-44.321-155.124l110.803-193.401c18.131-36.263 56.409-58.423 102.744-58.423 20.146 0 38.277 4.029 58.423 14.102l193.401 110.803c24.175 14.102 44.321 40.292 54.394 68.496 4.029 28.204 0 58.423-14.102 86.628l-110.803 193.401c-34.248 52.38-102.744 72.525-155.124 44.321l-36.263-20.146c-6.044-4.029-10.073-10.073-12.088-14.102-2.015-6.044 0-12.088 4.029-18.131s16.117-20.146 32.234-8.058l36.263 20.146c28.204 16.117 72.525 6.044 88.642-22.161l110.803-193.401c10.073-14.102 12.088-32.234 6.044-50.365-6.044-16.117-16.117-28.204-26.19-38.277h-2.015l-193.401-110.803c-14.102-8.058-30.219-10.073-48.35-6.044s-32.234 14.102-40.292 28.204l-110.803 193.401c-16.117 32.234-6.044 72.525 22.161 88.642l36.263 20.146c6.044 4.029 20.146 16.117 8.058 32.234-6.044 6.044-14.102 10.073-24.175 10.073-4.029 0-6.044 0-10.073-2.015l-36.263-20.146zM423.358 593.879c-2.015 0-2.015 0-4.029 0-4.029 0-8.058-2.015-12.088-4.029-8.058-4.029-12.088-12.088-12.088-20.146 0-4.029 0-8.058 4.029-12.088v-2.015l177.285-310.248c4.029-8.058 12.088-12.088 20.146-12.088 4.029 0 8.058 0 12.088 4.029 8.058 6.044 12.088 10.073 14.102 16.117s0 12.088-4.029 18.131l-177.285 310.248c-6.044 6.044-12.088 10.073-18.131 12.088z" />
<glyph unicode="&#xe902;" glyph-name="Details" d="M112.001 286.666h800.001c12 0 24 12 24 24s-12 24-24 24h-800.001c-12 0-24-12-24-24-3.999-12 8.001-24 24-24zM911.999 166.666h-800.001c-12 0-24-12-24-24s12-24 24-24h800.001c12 0 24 12 24 24 3.999 12-8.001 24-24 24zM911.999-1.334h-800.001c-12 0-24-12-24-24s8.001-27.999 24-27.999h800.001c12 0 24 12 24 24s-8.001 27.999-24 27.999zM512 442.666c164.001 0 315.999 80.001 404.001 219.999 3.999 8.001 3.999 20.001 0 27.999-87.999 135.999-240 216-404.001 216s-315.999-80.001-404.001-219.999c-8.001-8.001-8.001-20.001 0-27.999 87.999-135.999 240-216 404.001-216zM512 854.668c140.001 0 272.001-68.001 351.999-183.999-80.001-116.001-212.001-183.999-351.999-183.999s-272.001 68.001-351.999 183.999c80.001 116.001 212.001 183.999 351.999 183.999zM512 526.666c80.001 0 144 63.999 144 144s-63.999 147.999-144 147.999-144-63.999-144-144 63.999-147.999 144-147.999zM512 770.668c51.999 0 96-44.001 96-96s-44.001-96-96-96-96 44.001-96 96c0 51.999 44.001 96 96 96z" />
<glyph unicode="&#xe903;" glyph-name="recruit_feedback" d="M512 929.367c-276.9 0-500.4-223.4-500.4-500.4s223.5-500.3 500.4-500.3 500.4 223.4 500.4 500.4-223.5 500.3-500.4 500.3v0 0zM512-48.133c-263 0-477.1 214.1-477.1 477.1s214.1 477.1 477.1 477.1 477.1-214.1 477.1-477.1-214.1-477.1-477.1-477.1v0zM304.9 377.767c7 0 11.6 4.7 11.6 11.6v242c0 9.3 7 16.3 16.3 16.3h237.4v-81.5c0-23.3 18.6-39.6 39.6-39.6h81.5v-100.1c0-7 4.7-11.6 11.6-11.6s11.6 4.7 11.6 11.6v112c0 0 0 0 0 2.3 0 0 0 0 0 2.3s-2.3 4.7-2.3 4.7l-121 121c-2.3 2.3-2.3 2.3-4.7 2.3 0 0 0 0-2.3 0 0 0 0 0-2.3 0h-249c-23.3 0-39.6-18.6-39.6-39.6v-242c-0.1-6.9 4.6-11.6 11.6-11.7v0 0zM677.2 552.367h-65.2c-9.3 0-16.3 7-16.3 16.3v65.2l81.5-81.5zM481.7 217.167h-146.6c-9.3 0-16.3 7-16.3 16.3v95.4c0 7-4.7 11.6-11.6 11.6s-11.6-4.7-11.6-11.6v-95.4c0-23.3 18.6-39.6 39.6-39.6h146.6c7 0 11.6 4.7 11.6 11.6s-7 11.8-11.7 11.7v0zM588.8 466.267c0 7-4.7 11.6-11.6 11.6h-197.9c-7 0-11.6-4.7-11.6-11.6s4.7-11.6 11.6-11.6h197.8c7-0.1 11.7 4.6 11.7 11.6v0zM381.7 375.467c-7 0-11.6-4.7-11.6-11.6s4.7-11.6 11.6-11.6h76.8c7 0 11.6 4.7 11.6 11.6s-4.7 11.6-11.6 11.6h-76.8zM619.1 403.367c-60.5 0-109.4-48.9-109.4-109.4s48.8-109.3 109.4-109.3c60.5 0 109.4 48.9 109.4 109.4s-46.6 109.3-109.4 109.3v0zM619.1 207.867c-48.9 0-86.1 39.6-86.1 86.1s39.6 86.1 86.1 86.1 86.1-39.6 86.1-86.1-37.3-86.1-86.1-86.1zM584.1 293.967c0-7.7-6.3-14-14-14s-14 6.3-14 14 6.3 14 14 14 14-6.3 14-14zM633 293.967c0-7.7-6.3-14-14-14s-14 6.3-14 14 6.3 14 14 14 14-6.3 14-14zM684.2 293.967c0-7.7-6.3-14-14-14s-14 6.3-14 14 6.3 14 14 14 14-6.3 14-14z" />
<glyph unicode="&#xe904;" glyph-name="recruit_move" d="M512 929.367c-276.9 0-500.4-223.4-500.4-500.4s223.5-500.3 500.4-500.3 500.4 223.4 500.4 500.4-223.5 500.3-500.4 500.3v0 0zM512-48.133c-263 0-477.1 214.1-477.1 477.1s214.1 477.1 477.1 477.1 477.1-214.1 477.1-477.1-214.1-477.1-477.1-477.1v0zM304.9 377.767c7 0 11.6 4.7 11.6 11.6v242c0 9.3 7 16.3 16.3 16.3h237.4v-81.5c0-23.3 18.6-39.6 39.6-39.6h81.5v-100.1c0-7 4.7-11.6 11.6-11.6s11.6 4.7 11.6 11.6v112c0 0 0 0 0 2.3 0 0 0 0 0 2.3s-2.3 4.7-2.3 4.7l-121 121c-2.3 2.3-2.3 2.3-4.7 2.3 0 0 0 0-2.3 0 0 0 0 0-2.3 0h-249c-23.3 0-39.6-18.6-39.6-39.6v-242c-0.1-6.9 4.6-11.6 11.6-11.7v0 0zM677.2 552.367h-65.2c-9.3 0-16.3 7-16.3 16.3v65.2l81.5-81.5zM481.7 217.167h-146.6c-9.3 0-16.3 7-16.3 16.3v95.4c0 7-4.7 11.6-11.6 11.6s-11.6-4.7-11.6-11.6v-95.4c0-23.3 18.6-39.6 39.6-39.6h146.6c7 0 11.6 4.7 11.6 11.6s-7 11.8-11.7 11.7v0zM588.8 466.267c0 7-4.7 11.6-11.6 11.6h-197.9c-7 0-11.6-4.7-11.6-11.6s4.7-11.6 11.6-11.6h197.8c7-0.1 11.7 4.6 11.7 11.6v0zM381.7 375.467c-7 0-11.6-4.7-11.6-11.6s4.7-11.6 11.6-11.6h76.8c7 0 11.6 4.7 11.6 11.6s-4.7 11.6-11.6 11.6h-76.8zM619.1 403.367c-60.5 0-109.4-48.9-109.4-109.4s48.8-109.3 109.4-109.3c60.5 0 109.4 48.9 109.4 109.4s-46.6 109.3-109.4 109.3v0zM619.1 207.867c-48.9 0-86.1 39.6-86.1 86.1s39.6 86.1 86.1 86.1 86.1-39.6 86.1-86.1-37.3-86.1-86.1-86.1zM670.3 284.667h-100.1c-7 0-11.6-4.7-11.6-11.6s4.7-11.6 11.6-11.6h72.1l-11.6-11.6c-4.7-4.7-4.7-11.6 0-16.3 4-4 15.2-3.4 18.6 0l30.3 30.3c2.3 2.3 3.2 11.8 0.9 15-2.9 3.8-5.6 5.8-10.2 5.8v0 0zM670.3 326.567h-72.1l11.6 11.6c4.7 4.7 4.7 11.6 0 16.3s-11.6 4.7-16.3 0l-30.3-30.3c-4.7-4.7-7-9.3-4.7-14s7-7 11.6-7h100.1c7 0 11.6 4.7 11.6 11.6s-4.6 11.9-11.5 11.8v0 0z" />
<glyph unicode="&#xe905;" glyph-name="recruit_quit" d="M512 929.367c-276.9 0-500.4-223.4-500.4-500.4s223.5-500.3 500.4-500.3 500.4 223.4 500.4 500.4-223.5 500.3-500.4 500.3v0 0zM512-48.133c-263 0-477.1 214.1-477.1 477.1s214.1 477.1 477.1 477.1 477.1-214.1 477.1-477.1-214.1-477.1-477.1-477.1v0zM304.9 377.767c7 0 11.6 4.7 11.6 11.6v242c0 9.3 7 16.3 16.3 16.3h237.4v-81.5c0-23.3 18.6-39.6 39.6-39.6h81.5v-100.1c0-7 4.7-11.6 11.6-11.6s11.6 4.7 11.6 11.6v112c0 0 0 0 0 2.3 0 0 0 0 0 2.3s-2.3 4.7-2.3 4.7l-121 121c-2.3 2.3-2.3 2.3-4.7 2.3 0 0 0 0-2.3 0 0 0 0 0-2.3 0h-249c-23.3 0-39.6-18.6-39.6-39.6v-242c-0.1-6.9 4.6-11.6 11.6-11.7v0 0zM677.2 552.367h-65.2c-9.3 0-16.3 7-16.3 16.3v65.2l81.5-81.5zM481.7 217.167h-146.6c-9.3 0-16.3 7-16.3 16.3v95.4c0 7-4.7 11.6-11.6 11.6s-11.6-4.7-11.6-11.6v-95.4c0-23.3 18.6-39.6 39.6-39.6h146.6c7 0 11.6 4.7 11.6 11.6s-7 11.8-11.7 11.7v0zM588.8 466.267c0 7-4.7 11.6-11.6 11.6h-197.9c-7 0-11.6-4.7-11.6-11.6s4.7-11.6 11.6-11.6h197.8c7-0.1 11.7 4.6 11.7 11.6v0zM381.7 375.467c-7 0-11.6-4.7-11.6-11.6s4.7-11.6 11.6-11.6h76.8c7 0 11.6 4.7 11.6 11.6s-4.7 11.6-11.6 11.6h-76.8zM619.1 403.367c-60.5 0-109.4-48.9-109.4-109.4s48.8-109.3 109.4-109.3c60.5 0 109.4 48.9 109.4 109.4s-46.6 109.3-109.4 109.3v0zM619.1 207.867c-48.9 0-86.1 39.6-86.1 86.1s39.6 86.1 86.1 86.1 86.1-39.6 86.1-86.1-37.3-86.1-86.1-86.1zM659.5 332.467c-4.7 4.7-12.5 5.8-17.1 1.1l-23.3-23.3-23.3 23.3c-4.7 4.7-11.6 4.7-16.3 0s-4.7-11.6 0-16.3l23.3-23.3-23.3-23.3c-4.7-4.7-4.1-12.2 0.6-16.9 4.1-4.1 13.9-3.4 18 0.6l23.3 23.3 23.3-23.3c3.9-3.9 12.8-5.8 18.6 0 4.7 4.7 4.7 11.6 0 16.3l-23.3 23.3 23.3 23.3c4.9 5.9-3.8 15.2-3.8 15.2v0z" />
<glyph unicode="&#xe906;" glyph-name="recruit_delivery" d="M512 929.367c-276.9 0-500.4-223.4-500.4-500.4s223.5-500.3 500.4-500.3 500.4 223.4 500.4 500.4-223.5 500.3-500.4 500.3v0 0zM512-48.133c-263 0-477.1 214.1-477.1 477.1s214.1 477.1 477.1 477.1 477.1-214.1 477.1-477.1-214.1-477.1-477.1-477.1v0zM613.1 690.167c-2.8 2.6-8.7 1.9-15 1.8h-246.7c-23.3 0-41.9-18.6-41.9-41.9v-246.7c0-7 4.7-11.6 11.6-11.6s11.6 4.7 11.6 11.6v244.4c0 11.6 9.3 18.6 18.6 18.6h239.7v-81.5c0-23.3 18.6-41.9 41.9-41.9h86.1v-300.2c0-11.6-9.3-18.6-18.6-18.6h-349c-11.6 0-18.6 9.3-18.6 18.6v97.7c0 7-4.7 11.6-11.6 11.6s-11.6-4.7-11.6-11.6v-97.7c0-23.3 18.6-41.9 41.9-41.9h349.1c20.9 0 39.6 18.6 39.6 44.2v311.9c0 4.7 0 7-2.3 9.3-0.2 0-122.3 121.7-124.8 123.9v0zM635.3 563.967c-11.6 0-18.6 9.3-18.6 18.6v67.5l86.1-86.1h-67.5zM430.5 454.567h197.8c4.7 0 11.6 4.7 11.6 11.6s-4.7 11.6-11.6 11.6h-197.8c-7 0-11.6-4.7-11.6-11.6s4.7-11.6 11.6-11.6zM428.2 349.867h137.3c7 0 11.6 4.7 11.6 11.6s-4.7 11.6-11.6 11.6h-137.3c-7 0-11.6-4.7-11.6-11.6s4.6-11.6 11.6-11.6v0z" />
<glyph unicode="&#xe907;" glyph-name="staff_transfer" d="M512 929.367c-276.9 0-500.4-223.4-500.4-500.4s223.5-500.3 500.4-500.3 500.4 223.4 500.4 500.4-223.5 500.3-500.4 500.3v0 0zM512-48.133c-263 0-477.1 214.1-477.1 477.1s214.1 477.1 477.1 477.1 477.1-214.1 477.1-477.1-214.1-477.1-477.1-477.1v0zM414.3 466.267c-7 0-11.6-4.7-11.6-11.6s4.7-11.6 11.6-11.6h37.2c4.7-27.9 27.9-48.9 58.2-48.9s53.5 20.9 58.2 48.9h160.6v-39.6c0-7 4.7-11.6 11.6-11.6s11.6 4.7 11.6 11.6v155.9c0 25.6-20.9 46.5-46.5 46.5h-125.6v7c0 20.9-18.6 39.6-39.6 39.6h-62.8c-20.9 0-39.6-18.6-39.6-39.6v-7h-125.6c-25.6 0-46.5-20.9-46.5-46.5v-286.3c0-25.6 20.9-46.5 46.5-46.5h214.1c7 0 11.6 4.7 11.6 11.6s-4.7 11.6-11.6 11.6h-214.1c-11.6 0-23.3 9.3-23.3 23.3v169.9h60.5c7 0 11.6 4.7 11.6 11.6s-4.7 11.6-11.6 11.6h-58.2v93.1c0 11.6 9.3 23.3 23.3 23.3h391c11.6 0 23.3-9.3 23.3-23.3v-93.1l-314.3 0.1zM509.7 417.367c-16.3 0-30.3 11.6-32.6 25.6h67.5c-7-16.3-18.6-25.6-34.9-25.6v0 0zM460.8 610.567c0 9.3 7 16.3 16.3 16.3h62.8c9.3 0 16.3-7 16.3-16.3v-4.7h-95.4v4.7zM744.7 273.067h-142c-7 0-11.6-4.7-11.6-11.6s4.7-11.6 11.6-11.6h114l-23.3-23.3c-4.7-4.7-4.7-11.6 0-16.3 2.3-2.3 4.7-2.3 9.3-2.3s7 0 9.3 2.3l41.9 41.9c2.3 2.3 4.7 9.3 2.3 11.6s-6.8 9.3-11.5 9.3v0 0zM744.7 328.967h-114l23.3 23.3c4.7 4.7 4.7 11.6 0 16.3s-11.6 4.7-16.3 0l-41.9-41.9c-2.3-2.3-4.7-9.3-2.3-11.6s7-7 11.6-7h139.6c7 0 11.6 4.7 11.6 11.6s-4.6 9.2-11.6 9.3v0 0z" />
<glyph unicode="&#xe908;" glyph-name="staff_leave" d="M512 929.367c-276.9 0-500.4-223.4-500.4-500.4s223.5-500.3 500.4-500.3 500.4 223.4 500.4 500.4-223.5 500.3-500.4 500.3v0 0zM512-48.133c-263 0-477.1 214.1-477.1 477.1s214.1 477.1 477.1 477.1 477.1-214.1 477.1-477.1-214.1-477.1-477.1-477.1v0zM698.2 394.067c-7 0-11.6-4.7-11.6-11.6v-32.6c0-7 4.7-11.6 11.6-11.6s11.6 4.7 11.6 11.6v32.6c0 4.6-4.6 11.6-11.6 11.6zM667.9 622.167h-93.1v48.9h16.3c7 0 11.6 4.7 11.6 11.6s-4.7 11.6-11.6 11.6h-158.2c-7 0-11.6-4.7-11.6-11.6 0-7 4.7-11.6 11.6-11.6h16.3v-48.9h-93.1c-23.3 0-41.9-18.6-41.9-41.9v-337.5c0-23.3 18.6-41.9 41.9-41.9h7c0-23.3 18.6-41.9 41.9-41.9s41.9 18.6 41.9 41.9h132.7c0-23.3 18.6-41.9 41.9-41.9s41.9 18.6 41.9 41.9h7c23.3 0 41.9 18.6 41.9 41.9v67.5c0 7-4.7 11.6-11.6 11.6s-11.6-4.7-11.6-11.6v-67.5c0-9.3-9.3-18.6-18.6-18.6h-314.4c-9.3 0-18.6 9.3-18.6 18.6v337.5c0 9.3 9.3 18.6 18.6 18.6h314.2c9.3 0 18.6-9.3 18.6-18.6v-158.3c0-7 4.7-11.6 11.6-11.6s11.6 4.7 11.6 11.6v158.3c-2.2 23.3-20.8 41.9-44.2 41.9v0 0zM402.6 184.667c-9.3 0-18.6 7-18.6 18.6h37.2c0-11.7-6.9-18.6-18.6-18.6v0zM621.4 184.667c-9.3 0-18.6 7-18.6 18.6h37.2c0-11.7-9.3-18.6-18.6-18.6v0 0zM551.6 673.367v-48.9h-79.1v48.9h79.1zM416.6 545.367c-20.9 0-37.2-16.3-37.2-37.2v-193.2c0-20.9 16.3-37.2 37.2-37.2h4.7c20.9 0 37.2 16.3 37.2 37.2v193.2c0 20.9-16.3 37.2-37.2 37.2h-4.7zM435.2 508.167v-193.2c0-7-7-14-14-14h-4.7c-7 0-14 7-14 14v193.2c0 7 7 14 14 14h4.7c7-0.1 14-4.7 14-14zM602.8 545.367c-20.9 0-37.2-16.3-37.2-37.2v-193.2c0-20.9 16.3-37.2 37.2-37.2h4.7c20.9 0 37.2 16.3 37.2 37.2v193.2c0 20.9-16.3 37.2-37.2 37.2h-4.7zM621.4 508.167v-193.2c0-7-7-14-14-14h-4.7c-7 0-14 7-14 14v193.2c0 7 7 14 14 14h4.7c7-0.1 14-4.7 14-14z" />
<glyph unicode="&#xe909;" glyph-name="salary_transfer" d="M512 929.367c-276.9 0-500.4-223.4-500.4-500.4s223.5-500.3 500.4-500.3 500.4 223.4 500.4 500.4-223.5 500.3-500.4 500.3v0 0zM512-48.133c-263 0-477.1 214.1-477.1 477.1s214.1 477.1 477.1 477.1 477.1-214.1 477.1-477.1-214.1-477.1-477.1-477.1v0zM737.7 587.267h-37.2v34.9c0 16.3-11.6 27.9-27.9 27.9h-321.2c-16.3 0-27.9-11.6-27.9-27.9v-34.9h-37.2c-23.3 0-41.9-18.6-41.9-41.9v-297.9c0-23.3 18.6-41.9 41.9-41.9h451.5c23.3 0 41.9 18.6 41.9 41.9v297.9c-0.1 23.3-18.7 41.9-42 41.9v0 0zM737.7 563.967c9.3 0 18.6-7 18.6-18.6v-60.5h-55.9v79.1h37.3zM346.8 622.167c0 2.3 2.3 4.7 4.7 4.7h321.2c2.3 0 4.7-2.3 4.7-4.7v-135h-330.6v135zM267.6 545.367c0 9.3 7 18.6 18.6 18.6h37.2v-76.8h-55.9l0.1 58.2zM737.7 231.167h-451.4c-9.3 0-18.6 7-18.6 18.6v214.1h488.7v-32.6h-146.6c-37.2 0-65.2-30.3-65.2-65.2v-11.6c0-34.9 27.9-62.8 62.8-62.8h148.9v-41.9c0.1-11.7-6.9-18.6-18.6-18.6v0 0zM756.4 405.767v-93.1h-149c-20.9 0-39.6 18.6-39.6 39.6v11.6c0 23.3 18.6 41.9 41.9 41.9h146.7zM674.9 317.267c23.3 0 41.9 18.6 41.9 41.9s-18.6 41.9-41.9 41.9c-23.3 0-41.9-18.6-41.9-41.9s18.6-41.9 41.9-41.9zM674.9 377.767c9.3 0 18.6-7 18.6-18.6s-7-18.6-18.6-18.6c-9.3 0-18.6 7-18.6 18.6s9.3 18.6 18.6 18.6zM318.8 368.467c-7 0-11.6-4.7-11.6-11.6v-79.2c0-7 4.7-11.6 11.6-11.6s11.6 4.7 11.6 11.6v79.1c0.1 7.1-6.9 11.7-11.6 11.7v0zM479.4 540.667c-7 0-11.6-4.7-11.6-11.6s4.7-11.6 11.6-11.6h20.9v-11.6c0-7 4.7-11.6 11.6-11.6 7 0 11.6 4.7 11.6 11.6v11.6h20.9c7 0 11.6 4.7 11.6 11.6s-4.7 11.6-11.6 11.6h-20.9v9.3h20.9c7 0 11.6 4.7 11.6 11.6s-4.7 11.6-11.6 11.6h-9.3l16.3 18.6c4.7 4.7 2.3 11.6-2.3 16.3s-11.6 2.3-16.3-2.3l-20.8-25.5-20.9 27.9c-4.7 4.7-11.6 7-16.3 2.3s-7-11.6-2.3-16.3l16.3-20.9h-9.3c-7 0-11.6-4.7-11.6-11.6s4.7-11.6 11.6-11.6h20.9v-9.3l-21-0.1z" />
<glyph unicode="&#xe90a;" glyph-name="staff_entry" d="M512-71.333c-276.9 0-500.4 223.4-500.4 500.4s223.5 500.3 500.4 500.3 500.4-223.4 500.4-500.4-223.5-500.3-500.4-500.3zM512 906.067c-263 0-477.1-214.1-477.1-477.1s214.1-477.1 477.1-477.1 477.1 214.1 477.1 477.1-214.1 477.1-477.1 477.1v0 0zM705.2 536.067v0h-86.1c-20.9 0-37.2 16.3-37.2 37.2v86.1c0 4.7 2.3 9.3 7 11.6s9.3 0 11.6-2.3l114-111.7c2.3-2.3 4.7-9.3 2.3-11.6-2.3-7-7-9.3-11.6-9.3v0 0zM602.8 633.767v-58.1c0-9.3 7-14 14-14h58.2l-72.2 72.1zM679.6 184.667h-23.3c-7 0-11.6 4.7-11.6 11.6s4.7 11.6 11.6 11.6h23.3c9.3 0 14 7 14 14v325.8c0 7 4.7 11.6 11.6 11.6s11.6-4.7 11.6-11.6v-325.8c0-20.9-16.3-37.2-37.2-37.2v0 0zM584.1 184.667h-239.7c-20.9 0-37.2 16.3-37.2 37.2v411.9c0 20.9 16.3 37.2 37.2 37.2h246.7c7 0 11.6-4.7 11.6-11.6s-4.7-11.6-11.6-11.6h-246.7c-7 0-14-7-14-14v-411.9c0-9.3 7-14 14-14h230.4v114c0 4.7 2.3 9.3 7 11.6s9.3 0 11.6-2.3l46.6-46.5c4.7-4.7 4.7-11.6 0-16.3s-11.6-4.7-16.3 0l-27.9 27.9v-97.7c0-9.3-4.7-13.9-11.7-13.9v0 0zM605.1 470.867h-97.7c-7 0-11.6 4.7-11.6 11.6s4.7 11.6 11.6 11.6h97.7c7 0 11.6-4.7 11.6-11.6s-4.6-11.6-11.6-11.6zM444.5 470.867h-37.2c-7 0-11.6 4.7-11.6 11.6s4.7 11.6 11.6 11.6h37.2c7 0 11.6-4.7 11.6-11.6s-4.6-11.6-11.6-11.6v0zM542.3 366.167h-137.4c-7 0-11.6 4.7-11.6 11.6s4.7 11.6 11.6 11.6h137.3c7 0 11.6-4.7 11.6-11.6s-4.6-11.6-11.5-11.6z" />
<glyph unicode="&#xe90b;" glyph-name="send_offer" d="M512 929.367c-276.9 0-500.4-223.4-500.4-500.4s223.5-500.3 500.4-500.3 500.4 223.4 500.4 500.4-223.5 500.3-500.4 500.3v0 0zM512-48.133c-263 0-477.1 214.1-477.1 477.1s214.1 477.1 477.1 477.1 477.1-214.1 477.1-477.1-214.1-477.1-477.1-477.1v0zM325.8 470.867c7 0 11.6 4.7 11.6 11.6v153.7c0 9.3 7 14 14 14h321.2c9.3 0 14-7 14-14v-153.6c0-7 4.7-11.6 11.6-11.6s11.6 4.7 11.6 11.6v153.6c0 20.9-16.3 37.2-37.2 37.2h-321.2c-20.9 0-37.2-16.3-37.2-37.2v-153.6c0-4.7 4.6-11.7 11.6-11.7v0 0zM733.1 473.167l-202.5-95.4c-4.7 4.7-11.6 7-20.9 7-7 0-14-2.3-18.6-7l-197.8 93.1h-4.7c-11.6 0-23.3-9.3-23.3-23.3v-209.5c0-20.9 16.3-37.2 37.2-37.2h411.9c20.9 0 37.2 16.3 37.2 37.2v209.6c2.6 18.1-4.6 25.5-18.5 25.5v0 0zM512 363.867c4.7 0 7-2.3 7-7s-2.3-7-7-7-7 2.3-7 7 2.3 7 7 7zM735.4 242.767c0-9.3-9.3-14-16.3-14h-414.2c-9.3 0-14 7-14 14v207.2l193.2-90.8v-2.3c0-16.3 14-30.3 30.3-30.3 2.3 0 4.7 0 7 2.3v-25.6c0-7 4.7-11.6 11.6-11.6s11.6 4.7 11.6 11.6v53.5c0 0 0 0 0 2.3l190.8 90.8v-207.1zM572.5 466.267c2.3-2.3 4.7-2.3 9.3-2.3s7 0 9.3 2.3l67.5 67.5c4.7 4.7 4.7 11.6 0 16.3s-11.6 4.7-16.3 0l-60.5-60.5-30.3 30.3c-4.7 4.7-11.6 4.7-16.3 0s-4.7-11.6 0-16.3l37.3-37.3zM549.2 575.567c7 0 11.6 4.7 11.6 11.6s-4.7 11.6-11.6 11.6h-41.9c-7 0-11.6-4.7-11.6-11.6s4.7-11.6 11.6-11.6h41.9zM470.1 575.567c7 0 11.6 4.7 11.6 11.6s-4.7 11.6-11.6 11.6h-88.4c-7 0-11.6-4.7-11.6-11.6s4.7-11.6 11.6-11.6h88.4zM384 503.467h104.7c7 0 11.6 4.7 11.6 11.6s-4.7 11.6-11.6 11.6h-107c-7 0-11.6-4.7-11.6-11.6s6.9-11.6 13.9-11.6zM330.5 335.867c-7 0-11.6-4.7-11.6-11.6v-55.9c0-7 4.7-11.6 11.6-11.6s11.6 4.7 11.6 11.6v55.9c0 7-4.6 11.6-11.6 11.6z" />
<glyph unicode="&#xe90c;" glyph-name="recruit_recommend" d="M512-79.295c-281.327 0-508.401 226.972-508.401 508.401s227.073 508.299 508.401 508.299 508.401-226.972 508.401-508.401-227.073-508.299-508.401-508.299zM512 913.732c-267.205 0-484.728-217.523-484.728-484.728s217.523-484.728 484.728-484.728 484.728 217.523 484.728 484.728-217.523 484.728-484.728 484.728v0 0zM709.203 527.555h-94.589c-23.673 0-40.233 18.897-40.233 40.233v94.589c0 4.775 2.337 9.449 7.112 11.785s9.449 0 11.785-2.337l122.935-122.935c2.337-2.337 3.556-8.738 2.337-11.785-1.219-3.15-4.674-9.55-9.347-9.55v0 0zM598.054 631.592v-66.242c0-9.449 7.112-16.561 16.561-16.561h66.242l-82.803 82.803zM301.589 376.985c-7.112 0-11.785 4.775-11.785 11.785v245.869c0 23.673 18.897 40.233 40.233 40.233h252.981c2.337 0 7.112-2.337 9.449-2.337l122.935-122.935c2.337-2.337 2.337-4.775 2.337-9.449v-113.486c0-7.112-4.775-11.785-11.785-11.785s-11.785 4.775-11.785 11.785v108.812l-115.823 115.823h-248.511c-9.449 0-16.561-7.112-16.561-16.561v-245.869c0-7.112-4.674-11.887-11.684-11.887v0 0zM481.216 190.246h-148.944c-23.673 0-40.233 18.897-40.233 40.233v96.925c0 7.112 4.775 11.785 11.785 11.785s11.785-4.775 11.785-11.785v-96.925c0-9.449 7.112-16.561 16.561-16.561h148.944c7.112 0 11.785-4.775 11.785-11.785s-6.909-11.989-11.684-11.887v0zM578.242 455.013h-167.943c-7.112 0-11.785 4.775-11.785 11.785s4.775 11.785 11.785 11.785h167.841c7.112 0 11.785-4.775 11.785-11.785s-4.674-11.785-11.684-11.785zM417.411 455.013h-37.795c-7.112 0-11.785 4.775-11.785 11.785s4.775 11.785 11.785 11.785h37.795c7.112 0 11.785-4.775 11.785-11.785s-4.674-11.785-11.785-11.785zM459.981 350.976h-78.028c-7.112 0-11.785 4.775-11.785 11.785s4.775 11.785 11.785 11.785h78.028c7.112 0 11.785-4.775 11.785-11.785s-7.010-11.785-11.785-11.785zM620.812 180.798c-61.467 0-111.149 49.682-111.149 111.149s49.682 111.149 111.149 111.149 111.149-49.682 111.149-111.149-47.345-111.149-111.149-111.149zM620.812 379.424c-49.682 0-87.477-40.233-87.477-87.477s40.233-87.477 87.477-87.477 87.477 40.233 87.477 87.477-37.896 87.477-87.477 87.477zM606.589 248.767c-2.337 0-7.112 0.61-9.449 2.946l-28.346 28.346c-4.775 4.775-4.775 11.785 0 16.561s11.785 4.775 16.561 0l21.234-21.234 52.019 52.019c4.775 4.775 11.785 4.775 16.561 0s4.775-11.785 0-16.561l-59.131-59.131c-5.385-2.438-7.112-2.946-9.449-2.946v0z" />
<glyph unicode="&#xe944;" glyph-name="account1" d="M636.245 406.614c-16.043 5.333-32.085 10.667-45.44 13.355 80.171 42.752 133.589 128.256 133.589 227.115 0 141.611-114.901 259.157-259.157 259.157s-259.157-114.901-259.157-259.157c0-98.859 53.419-181.717 133.589-227.115-160.299-34.731-283.221-173.696-288.555-339.328 0-37.419 2.688-77.483 13.355-114.901 2.688-10.667 13.355-18.688 26.709-18.688 2.688 0 5.333 0 8.021 0 13.355 2.688 24.064 18.688 18.688 32.085-8.021 32.085-13.355 66.816-10.667 98.859 2.688 165.675 146.944 299.264 320.64 299.264h77.483c37.419 0 77.483-8.021 112.213-18.688 13.355-5.333 29.397 2.688 34.731 16.043s-2.688 26.709-16.043 32.085zM465.237 441.344c-112.213 0-205.739 90.837-205.739 205.739s93.525 205.739 205.739 205.739 205.739-90.837 205.739-205.739-93.525-205.739-205.739-205.739zM940.843 160.811c16.043 0 26.709 10.667 26.709 26.709s-10.667 26.709-26.709 26.709h-56.107l80.171 130.944c8.021 13.355 2.688 29.397-8.021 37.419-13.355 8.021-29.397 2.688-37.419-8.021l-96.171-157.653c0 0 0 0 0-2.688h-5.333c0 0 0 0 0 2.688l-96.171 157.653c-8.021 13.355-24.064 16.043-37.419 8.021s-16.043-24.064-8.021-37.419l80.171-130.944h-56.107c-16.043 0-26.709-10.667-26.709-26.709s10.667-26.709 26.709-26.709h93.525v-40.107h-93.525c-16.043 0-26.709-10.667-26.709-26.709s10.667-26.709 26.709-26.709h93.525v-93.525c0-16.043 10.667-26.709 26.709-26.709s26.709 10.667 26.709 26.709v93.525h93.525c16.043 0 26.709 10.667 26.709 26.709s-10.667 26.709-26.709 26.709h-93.525v40.107h93.525z" />
<glyph unicode="&#xe945;" glyph-name="account2" d="M512 871.040c-245.163 0-444.373-199.211-444.373-444.373s199.211-444.373 444.373-444.373 444.373 199.211 444.373 444.373-199.211 444.373-444.373 444.373zM512 33.408c-217.088 0-393.259 176.213-393.259 393.259s176.213 393.259 393.259 393.259 393.259-176.213 393.259-393.259-176.213-393.259-393.259-393.259zM512 304.086c22.997 0 40.875 17.877 40.875 40.875v339.669c0 22.997-17.877 40.875-40.875 40.875s-40.875-17.877-40.875-40.875v-337.109c0-25.557 17.877-43.435 40.875-43.435zM557.952 214.699c0-25.387-20.565-45.952-45.952-45.952s-45.952 20.565-45.952 45.952c0 25.387 20.565 45.952 45.952 45.952s45.952-20.565 45.952-45.952z" />
<glyph unicode="&#xe946;" glyph-name="add_social_security" d="M539.093 842.283v30.123c0 9.045-6.016 15.061-15.061 15.061s-15.061-6.016-15.061-15.061v-30.123c-246.955-9.045-442.709-210.816-442.709-457.771 0-9.045 6.016-15.061 15.061-15.061h427.691v-304.171c0-45.184-36.139-81.323-81.323-81.323s-81.323 36.139-81.323 81.323c0 9.045-6.016 15.061-15.061 15.061s-15.061-6.016-15.061-15.061c0-60.245 51.2-111.445 111.445-111.445s111.445 51.2 111.445 114.432v301.184h427.691c9.045 0 15.061 9.045 15.061 15.061 0 246.955-195.755 448.768-442.709 457.771zM343.339 399.574h-246.955c9.045 219.861 183.723 400.555 403.584 412.629l-156.629-412.629zM376.491 399.574l147.584 385.493 147.584-385.493h-295.168zM701.739 399.574l-156.629 412.629c222.891-9.045 397.568-189.739 406.571-412.629h-249.984zM831.232 128.512h-186.709c-9.045 0-15.061-6.016-15.061-15.061s6.016-15.061 15.061-15.061h186.709c9.045 0 15.061 6.016 15.061 15.061s-6.016 15.061-15.061 15.061zM831.232 5.035h-186.709c-9.045 0-15.061-6.016-15.061-15.061s6.016-15.061 15.061-15.061h186.709c9.045 0 15.061 6.016 15.061 15.061s-6.016 15.061-15.061 15.061z" />
<glyph unicode="&#xe947;" glyph-name="add_staff" d="M671.616 312.235c6.016 9.045 0 18.091-6.016 21.077-27.093 12.032-54.229 24.107-84.309 30.123 102.4 39.168 174.677 135.509 174.677 252.971 0 150.571-120.491 271.061-271.061 271.061s-271.061-120.491-271.061-271.061c0-117.461 72.277-213.845 174.677-252.971-180.693-42.155-313.216-204.8-313.216-397.568 0-9.045 6.016-15.061 15.061-15.061s15.061 6.016 15.061 15.061c0 210.816 171.691 379.477 379.477 379.477 57.216 0 114.432-15.061 165.632-39.168 9.045-3.029 18.091 0 21.077 6.016zM243.968 613.376c0 132.523 108.416 240.939 240.939 240.939s237.909-108.416 240.939-240.939c0-123.477-93.355-225.877-213.845-240.939-9.045 0-18.091 3.029-27.093 3.029s-18.091 0-27.093 0c-120.491 12.032-213.845 114.432-213.845 237.909zM948.693 131.499h-135.509v138.539c0 9.045-6.016 15.061-15.061 15.061s-15.061-6.016-15.061-15.061v-138.539h-138.539c-9.045 0-15.061-6.016-15.061-15.061s6.016-15.061 15.061-15.061h138.539v-135.509c0-9.045 6.016-15.061 15.061-15.061 6.016 0 15.061 6.016 15.061 15.061v135.509h135.509c9.045 0 15.061 6.016 15.061 15.061s-6.016 15.061-15.061 15.061z" />
<glyph unicode="&#xe948;" glyph-name="add" d="M512 896.726c-259.669 0-470.101-210.432-470.101-470.101s210.432-470.059 470.101-470.059 470.059 210.432 470.059 470.101-210.432 470.059-470.101 470.059zM512 12.544c-228.309 0-414.123 185.813-414.123 414.123s185.813 414.123 414.123 414.123 414.123-185.813 414.123-414.123c0-228.309-185.813-414.123-414.123-414.123zM787.328 455.766h-246.229v250.709c0 15.659-13.44 26.88-26.88 26.88s-26.88-13.44-26.88-26.88v-252.928h-246.229c-15.659 0-26.88-13.44-26.88-26.88s13.44-26.88 26.88-26.88h246.229v-252.928c0-15.659 13.44-26.88 26.88-26.88s26.88 13.44 26.88 26.88v252.928h246.229c15.659 0 26.88 13.44 26.88 26.88s-11.179 29.099-26.88 29.099z" />
<glyph unicode="&#xe949;" glyph-name="add3" d="M712.149 852.011h-400.299c-122.325 0-225.195-100.096-225.195-225.195v-400.299c0-122.325 100.096-225.195 225.195-225.195h400.299c122.325 0 225.195 100.096 225.195 225.195v400.299c0 122.325-102.869 225.195-225.195 225.195zM881.749 226.518c0-91.733-75.051-169.6-169.6-169.6h-400.299c-91.733 0-169.6 75.051-169.6 169.6v400.299c0 91.733 75.051 169.6 169.6 169.6h400.299c91.733 0 169.6-75.051 169.6-169.6v-400.299zM756.651 454.486h-216.832v222.421c0 16.683-11.136 27.819-27.819 27.819s-27.819-11.136-27.819-27.819v-222.421h-216.832c-16.683 0-27.819-11.136-27.819-27.819s11.136-27.819 27.819-27.819h216.832v-222.421c0-16.683 11.136-27.819 27.819-27.819s27.819 11.136 27.819 27.819v222.421h216.832c16.683 0 27.819 11.136 27.819 27.819s-11.136 27.819-27.819 27.819z" />
<glyph unicode="&#xe94a;" glyph-name="add4" d="M512 836.267c-226.219 0-409.6-183.381-409.6-409.6s183.381-409.6 409.6-409.6c226.219 0 409.6 183.381 409.6 409.6s-183.381 409.6-409.6 409.6zM765.952 406.187h-233.472v-239.019c0.512-1.707 0.811-3.712 0.811-5.717 0-11.307-9.173-20.48-20.48-20.48s-20.48 9.173-20.48 20.48c0 2.048 0.299 4.011 0.853 5.888l-0.043 238.848h-234.923c-1.707-0.512-3.712-0.811-5.717-0.811-11.307 0-20.48 9.173-20.48 20.48s9.173 20.48 20.48 20.48c2.048 0 4.011-0.299 5.888-0.853l233.131 0.043v240.427c2.56 8.576 10.411 14.763 19.669 14.763s17.109-6.144 19.627-14.592l0.043-238.933h235.093c8.576-2.56 14.763-10.411 14.763-19.669s-6.144-17.109-14.592-19.627z" />
<glyph unicode="&#xe94b;" glyph-name="add22" d="M905.856 452.566h-367.957v367.957c0 15.531-10.368 25.899-25.899 25.899s-25.899-10.368-25.899-25.899v-367.957h-367.957c-15.531 0-25.899-10.368-25.899-25.899s10.368-25.899 25.899-25.899h367.957v-367.957c0-15.531 10.368-25.899 25.899-25.899s25.899 10.368 25.899 25.899v367.957h367.957c15.531 0 25.899 10.368 25.899 25.899s-10.368 25.899-25.899 25.899z" />
<glyph unicode="&#xe94c;" glyph-name="address" d="M512 904.363c-202.667 0-369.109-164.053-369.109-369.109 0-287.104 337.749-566.955 352.213-579.029 4.821-4.821 9.643-4.821 14.464-4.821s12.075 2.432 14.464 4.821c14.464 12.075 352.213 296.747 352.213 579.029 4.821 202.667-161.621 369.109-364.288 369.109zM512 6.87c-65.152 57.899-320.853 296.747-320.853 528.341 0 176.128 142.336 320.853 320.853 320.853 176.128 0 320.853-144.768 320.853-320.853 0-226.773-255.744-470.443-320.853-528.341zM516.821 742.699c-108.587 0-197.845-89.259-197.845-197.845s89.259-197.845 197.845-197.845c108.587 0 197.845 89.259 197.845 197.845s-89.259 197.845-197.845 197.845zM516.821 395.307c-82.005 0-149.589 67.541-149.589 149.589s67.541 149.589 149.589 149.589c82.005 0 149.589-67.541 149.589-149.589s-67.541-149.589-149.589-149.589z" />
<glyph unicode="&#xe94e;" glyph-name="analyse" d="M960.22 130.708h-847.508c-14.271 0.449-25.649 12.069-25.649 26.424 0 0.285 0 0.571 0 0.815v589.309c0 0.163 0 0.409 0 0.612 0 13.009-10.357 23.651-23.242 24.059-13.009-0.449-23.325-11.051-23.325-24.059 0-0.203 0-0.409 0-0.612v-589.309c0-0.612-0.041-1.305-0.041-1.999 0-40.37 32.091-73.235 72.135-74.541h847.632c13.619 0 24.669 11.051 24.669 24.669s-11.051 24.669-24.669 24.669zM216.652 324.48c6.85 0.041 13.009 3.058 17.207 7.789l177.951 195.771c4.445 5.016 10.847 8.155 17.982 8.237 7.096-0.203 13.415-3.139 18.023-7.83l97.864-105.123c12.763-14.109 31.153-22.917 51.583-22.917 0.775 0 1.59 0 2.365 0.041 21.040 0.897 39.758 10.847 52.236 26.097l210.898 251.065v-97.864c0-13.171 10.683-23.895 23.895-23.895s23.895 10.683 23.895 23.895v166.941c0 0.163 0 0.409 0 0.612 0 13.334-10.601 24.222-23.854 24.629h-156.625c-13.946 0-25.241-11.295-25.241-25.241s11.295-25.241 25.241-25.241h106.265l-219.993-261.707c-4.323-5.301-10.725-8.727-17.982-9.011-0.367 0-0.734-0.041-1.101-0.041-6.972 0-13.212 3.017-17.494 7.83l-97.864 105.123c-12.885 14.068-31.357 22.876-51.868 22.917v0c-0.122 0-0.285 0-0.449 0-20.552 0-39.065-8.808-51.949-22.835l-178.767-195.771c-4.323-4.648-6.972-10.929-6.972-17.819s2.651-13.131 6.972-17.819c4.241-4.812 10.439-7.83 17.329-7.83 0.163 0 0.325 0 0.49 0z" />
<glyph unicode="&#xe94f;" glyph-name="announcement" d="M517.973 14.379c-2.987 0-5.973 0-8.917 0-1.493 0-2.987 0-2.987 0-14.891 4.48-31.275 14.891-47.616 28.288-26.795 23.808-55.083 49.109-83.328 74.411-25.301 22.315-49.109 43.179-72.917 62.507l-8.917 8.917c-14.891 11.904-29.781 23.808-44.672 37.205-11.904 10.411-25.301 20.821-37.205 31.275-2.987 0-7.424 0-10.411 0-1.493 0-1.493 0-2.987 0-2.987 0-7.424-1.493-11.904-1.493h-13.397c-19.328 0-37.205 7.424-50.603 19.328-13.397 13.397-19.328 29.781-19.328 47.616v196.48c0 0 0 0 0 1.493 0 0 0 0 0 0 0 20.821 7.424 38.699 19.328 52.096 13.397 13.397 29.781 19.328 50.603 19.328h37.205l31.275 26.795c32.725 28.288 64 53.589 92.288 77.397 5.973 4.48 10.411 8.917 16.384 13.397 10.411 8.917 22.315 19.328 34.219 26.795l10.411 7.424c11.904 8.917 22.315 17.877 31.275 26.795 11.904 8.917 20.821 16.384 28.288 22.315l5.973 4.48c4.48 4.48 8.917 7.424 11.904 8.917 1.493 1.493 2.987 2.987 4.48 2.987 0 0 1.493 1.493 1.493 1.493 19.328 14.891 38.699 22.315 55.083 19.328s29.781-11.904 37.205-23.808c7.424-10.411 10.411-22.315 14.891-35.712 0-1.493 0-1.493 0-2.987v-2.987c1.493-10.411 2.987-20.821 2.987-31.275v-631.083c0-14.891-2.987-26.795-7.424-38.699-4.48-13.397-11.904-25.301-22.315-35.712 0 0-1.493-1.493-1.493-1.493-13.397-7.424-25.301-11.904-38.699-11.904zM516.48 59.051c4.48 0 5.973 0 8.917 1.493 4.48 4.48 7.424 10.411 10.411 16.384 0 1.493 0 1.493 1.493 2.987 2.987 5.973 4.48 13.397 4.48 22.315v631.083c0 7.424-1.493 16.384-2.987 26.795v2.987c-2.987 10.411-4.48 16.384-8.917 20.821-1.493 1.493-2.987 2.987-7.424 4.48-1.493 0-8.917-1.493-19.328-10.411-1.493-1.493-2.987-2.987-5.973-4.48s-5.973-4.48-10.411-8.917l-5.973-4.48c-7.424-5.973-16.384-14.891-28.288-22.315-8.917-7.424-19.328-16.384-31.275-26.795l-10.411-8.917c-11.904-8.917-20.821-16.384-32.725-26.795-5.973-4.48-10.411-8.917-16.384-13.397-28.288-22.315-58.027-49.109-90.795-75.904l-38.699-32.725c-4.48-2.987-8.917-5.973-14.891-5.973h-44.672c-7.424 0-13.397-2.987-17.877-7.424-2.987-2.987-5.973-5.973-5.973-14.891 1.493-4.48 1.493-10.411 0-14.891v-189.013c0-5.973 1.493-10.411 7.424-14.891 4.48-4.48 10.411-7.424 17.877-7.424h13.397c1.493 0 2.987 0 4.48 0 4.48 2.987 10.411 2.987 14.891 2.987 8.917 1.493 19.328 1.493 26.795-4.48 14.891-11.904 29.781-25.301 44.672-37.205s29.781-25.301 44.672-37.205l10.411-8.917c22.315-19.328 46.123-40.192 71.424-62.507 28.288-25.301 56.576-50.603 83.328-74.411 0 0 0 0 0 0 13.397-11.904 23.808-16.384 28.288-17.877zM724.821 523.392c10.411-14.891 19.328-29.781 26.795-46.123 5.973-14.891 10.411-34.219 10.411-55.083s-2.987-38.699-10.411-56.576c-7.424-16.384-14.891-31.275-25.301-44.672-4.48-5.973-8.917-10.411-13.397-14.891s-10.411-5.973-17.877-5.973c-8.917 0-17.877 2.987-23.808 10.411s-10.411 14.891-10.411 23.808c0 4.48 1.493 8.917 2.987 11.904h-1.493c2.987 5.973 5.973 10.411 8.917 16.384 2.987 4.48 7.424 10.411 10.411 16.384s5.973 11.904 8.917 19.328c2.987 7.424 2.987 14.891 2.987 25.301 0 8.917-1.493 17.877-2.987 23.808-2.987 7.424-4.48 13.397-8.917 19.328-2.987 5.973-7.424 10.411-10.411 16.384-2.987 4.48-5.973 10.411-8.917 16.384-1.493 2.987-2.987 7.424-2.987 11.904 0 8.917 2.987 17.877 10.411 23.808 5.973 7.424 14.891 10.411 23.808 10.411 7.424 0 13.397-1.493 17.877-5.973 5.973-5.973 8.917-10.411 13.397-16.384v0zM773.973 206.379c-5.973-4.48-11.904-5.973-19.328-5.973-8.917 0-16.384 2.987-23.808 10.411-5.973 5.973-10.411 14.891-10.411 23.808 0 10.411 4.48 17.877 11.904 25.301l1.493 1.493c0 0 1.493 0 1.493 1.493v0c11.904 8.917 23.808 19.328 35.712 29.781 10.411 11.904 20.821 23.808 28.288 38.699 7.424 13.397 14.891 28.288 19.328 44.672 4.48 14.891 7.424 31.275 7.424 49.109 0 34.219-8.917 65.493-25.301 92.288-17.877 28.288-38.699 50.603-64 68.48-8.917 7.424-14.891 16.384-14.891 26.795 0 8.917 2.987 16.384 10.411 23.808 5.973 5.973 14.891 10.411 23.808 10.411 7.424 0 14.891-2.987 20.821-7.424 16.384-11.904 32.725-25.301 46.123-41.685 14.891-14.891 26.795-32.725 37.205-50.603s17.877-37.205 23.808-58.027c5.973-20.821 8.917-41.685 8.917-64s-2.987-44.672-8.917-65.493c-5.973-20.821-13.397-40.192-25.301-59.52-10.411-17.877-23.808-35.712-37.205-50.603-14.891-17.877-31.275-32.725-47.616-43.179v0z" />
<glyph unicode="&#xe950;" glyph-name="annual-bonus" d="M811.776 891.819h-599.509c-77.184-0.128-139.733-62.677-139.861-139.861v-20.224s0-1.536 0-2.432 0-3.968 0-5.931v-621.952c0.128-77.184 62.677-139.733 139.861-139.861h599.552c77.184 0.128 139.733 62.677 139.861 139.861v650.581c-0.128 77.184-62.677 139.733-139.861 139.861zM896.896 101.376c0-46.891-38.016-84.907-84.907-84.907h-599.765c-0.085 0-0.128 0-0.213 0-46.891 0-84.907 38.016-84.907 84.907 0 0 0 0 0 0v499.883c58.411-60.032 129.451-107.392 208.896-137.856 3.968-2.901 3.968-4.181 3.968-5.76 0-94.976 77.013-171.989 171.989-171.989s171.989 77.013 171.989 171.989c0 1.109 0 2.219 0 3.285 83.584 32.213 154.709 80.299 212.693 140.971zM627.925 469.76v0c0.597-3.413 1.067-7.552 1.323-11.776-0.128-64.939-52.565-117.248-117.205-117.248-64.725 0-117.205 52.48-117.205 117.205s52.48 117.205 117.205 117.205c56.363 0 103.424-39.765 114.645-92.757 0-1.835-0.085-3.029-0.085-4.267 0-2.987 0.469-5.888 1.365-8.576zM896.896 732.8s0-1.536 0-2.219c0-82.261-107.776-166.699-222.805-214.443-24.704 66.517-87.637 113.067-161.408 113.067s-136.747-46.549-161.024-111.872c-114.517 45.867-219.435 126.805-224.512 206.421v28.16c0 46.891 38.016 84.907 84.907 84.907h599.765c0.085 0 0.128 0 0.213 0 46.891 0 84.907-38.016 84.907-84.907 0 0 0 0 0 0z" />
<glyph unicode="&#xe951;" glyph-name="appendix" d="M893.781 491.136l-342.144 339.627c-9.899 9.899-24.789 9.899-34.731 0s-9.899-24.789 0-34.731l339.627-339.627c42.155-42.155 66.944-101.632 66.944-161.152 0-61.995-24.789-118.997-66.944-161.152s-101.632-66.944-161.152-66.944-118.997 24.789-161.152 66.944l-391.723 389.205c-27.264 27.264-42.155 64.469-42.155 104.107s14.891 74.368 42.155 104.107c57.003 57.003 148.736 57.003 205.781 0l406.571-406.571c12.416-12.416 19.84-27.264 19.84-44.629s-7.424-32.213-19.84-44.629c-24.789-24.789-66.944-24.789-89.259 0l-292.523 290.048c-9.899 9.899-24.789 9.899-34.731 0s-9.899-24.789 0-34.731l292.523-292.523c22.315-22.315 49.579-32.213 79.317-32.213s59.52 12.416 79.317 32.213c22.315 22.315 32.213 49.579 32.213 79.317s-12.416 59.52-32.213 79.317l-406.571 409.045c-76.843 76.843-200.789 76.843-275.2 0-37.205-37.205-57.003-86.784-57.003-138.837s19.84-101.632 57.003-138.837l391.723-391.723c54.528-54.528 126.421-81.792 195.84-81.792 71.893 0 141.312 27.264 195.84 81.792 52.053 52.053 81.792 121.472 81.792 195.84s-27.264 143.787-79.317 198.315z" />
<glyph unicode="&#xe953;" glyph-name="approve" d="M405.714 52.453h-259.071c-33.214 0-59.786 26.571-59.786 59.786v708.571c0 33.214 26.571 59.786 59.786 59.786h569.071c33.214 0 59.786-26.571 59.786-59.786v-283.429c0-13.286 8.857-22.143 22.143-22.143s22.143 8.857 22.143 22.143v281.214c0 57.571-46.5 104.071-104.071 104.071h-569.071c-57.571 0-104.071-46.5-104.071-104.071v-708.571c0-57.571 46.5-104.071 104.071-104.071h259.071c13.286 0 22.143 8.857 22.143 22.143s-11.071 24.357-22.143 24.357zM514.214 699.024c0 13.286-8.857 22.143-22.143 22.143h-267.929c-13.286 0-22.143-8.857-22.143-22.143s8.857-22.143 22.143-22.143h267.929c11.071 0 22.143 8.857 22.143 22.143zM224.143 581.667c-13.286 0-22.143-8.857-22.143-22.143s8.857-22.143 22.143-22.143h135.071c13.286 0 22.143 8.857 22.143 22.143s-8.857 22.143-22.143 22.143h-135.071zM702.429 488.667c-155 0-279-126.214-279-279s126.214-279 279-279c155 0 279 126.214 279 279s-126.214 279-279 279zM702.429-25.047c-130.643 0-234.714 106.286-234.714 234.714s106.286 234.714 234.714 234.714 234.714-106.286 234.714-234.714-106.286-234.714-234.714-234.714zM804.286 293.81l-130.643-130.643-73.071 73.071c-8.857 8.857-22.143 8.857-31 0s-8.857-22.143 0-31l88.571-88.571c4.429-4.429 11.071-6.643 15.5-6.643s11.071 2.214 15.5 6.643l146.143 146.143c8.857 8.857 8.857 22.143 0 31s-22.143 8.857-31 0z" />
<glyph unicode="&#xe955;" glyph-name="arrow_left" d="M661.419-36.352c-14.72 0-24.491 4.907-34.304 14.72l-401.749 401.749c-19.584 19.584-19.584 48.981 0 68.608l401.749 401.749c19.584 19.584 48.981 19.584 68.608 0s19.584-48.981 0-68.608l-367.445-367.445 367.445-367.445c19.584-19.584 19.584-48.981 0-68.608-9.813-9.813-19.584-14.72-34.304-14.72z" />
<glyph unicode="&#xe957;" glyph-name="arrow_right" d="M793.728 448.726l-401.749 401.749c-19.584 19.584-48.981 19.584-68.608 0s-19.584-48.981 0-68.608l367.445-367.445-367.445-367.445c-19.584-19.584-19.584-48.981 0-68.608 9.813-9.813 24.491-14.72 34.304-14.72s24.491 4.907 34.304 14.72l401.749 401.749c19.584 19.584 19.584 48.981 0 68.608z" />
<glyph unicode="&#xe95c;" glyph-name="attendance" d="M692.152 486.011c-148.36 0-267.048-120.808-267.048-267.048s120.808-267.048 267.048-267.048c148.36 0 267.048 120.808 267.048 267.048s-118.688 267.048-267.048 267.048zM692.152-5.697c-125.046 0-224.66 101.732-224.66 224.66 0 125.046 101.732 224.66 224.66 224.66 125.046 0 224.66-101.732 224.66-224.66 2.12-125.046-99.614-224.66-224.66-224.66zM815.078 240.157h-101.732v133.524c0 12.716-8.478 21.194-21.194 21.194s-21.194-8.478-21.194-21.194v-150.48c0-4.238 0-6.358 0-10.598 2.12-8.478 10.598-14.836 21.194-14.836h122.926c12.716 0 21.194 8.478 21.194 21.194 0 10.598-8.478 21.194-21.194 21.194zM410.268 68.483h-247.974c-31.792 0-57.224 25.434-57.224 57.224v678.218c0 31.792 25.434 57.224 57.224 57.224h544.694c31.792 0 57.224-25.434 57.224-57.224v-271.286c0-12.716 8.478-21.194 21.194-21.194s21.194 8.478 21.194 21.194v269.168c0 55.106-44.508 99.614-99.614 99.614h-544.694c-55.106 0-99.614-44.508-99.614-99.614v-678.218c0-55.106 44.508-99.614 99.614-99.614h247.974c12.716 0 21.194 8.478 21.194 21.194s-8.478 23.314-21.194 23.314zM393.312 736.103c-8.478 8.478-21.194 8.478-29.672 0l-72.060-72.060-40.27 38.15c-8.478 8.478-21.194 8.478-29.672 0s-8.478-21.194 0-29.672l52.986-52.986c4.238-4.238 8.478-6.358 14.836-6.358s10.598 2.12 14.836 6.358l86.896 86.896c10.598 8.478 10.598 21.194 2.12 29.672zM363.64 517.803l-72.060-72.060-38.15 38.15c-8.478 8.478-21.194 8.478-29.672 0s-8.478-21.194 0-29.672l52.986-52.986c4.238-4.238 8.478-6.358 14.836-6.358s10.598 2.12 14.836 6.358l86.896 86.896c8.478 8.478 8.478 21.194 0 29.672s-23.314 8.478-29.672 0zM617.972 736.103l-72.060-72.060-38.15 38.15c-8.478 8.478-21.194 8.478-29.672 0s-8.478-21.194 0-29.672l52.986-52.986c4.238-4.238 8.478-6.358 14.836-6.358s10.598 2.12 14.836 6.358l86.896 86.896c8.478 8.478 8.478 21.194 0 29.672-6.358 8.478-21.194 8.478-29.672 0z" />
<glyph unicode="&#xe95d;" glyph-name="business_bu1" d="M469.035 722.646l13.141 12.885 41.6-42.411-13.141-12.885-41.6 42.411zM478.336 831.659l38.741-39.467-14.635-14.336-38.741 39.467 14.635 14.336zM488.064 658.39l-41.6 42.411 13.141 12.885 41.6-42.411-13.141-12.885zM715.221 398.080l32.171 31.531 44.459-45.355-32.171-31.531-44.459 45.355zM581.632 938.667h-581.632l1024-1017.856v581.632l-442.368 436.224zM817.152 535.211l34.816-34.816c4.096 8.192 6.144 14.336 10.24 22.528l14.336-10.24c-4.096-6.144-8.192-14.336-12.288-22.528l34.816-34.816-12.288-12.288-81.92 83.968 12.288 8.192zM802.816 502.443l16.384-8.192c-4.096-12.288-10.24-26.624-18.432-40.96l18.432-18.432c14.336 4.096 28.672 10.24 43.008 16.384l8.192-16.384c-14.336-6.144-26.624-10.24-38.912-14.336l20.48-20.48-12.288-8.192-86.016 88.064 12.288 12.288 22.528-24.576c6.144 12.288 10.24 24.576 14.336 34.816zM770.048 543.403c-36.864-22.528-71.68-40.96-106.496-51.2l-6.144 16.384c30.72 10.24 65.536 26.624 104.448 51.2l8.192-16.384zM436.224 688.811l-12.288-12.288c-10.24-10.24-20.48-8.192-30.72 2.048l-20.48 22.528 10.24 14.336c6.144-8.192 12.288-14.336 18.432-20.48 4.096-4.096 10.24-4.096 14.336 0l8.192 8.192-57.344 57.344 10.24 10.24 57.344-57.344 12.288 12.288-71.68 73.728 10.24 10.24 71.68-73.728 14.336 12.288-57.344 57.344 10.24 10.24 57.344-57.344 10.24 10.24-51.2 51.2 34.816 32.768 51.2-51.2 10.24 10.24-67.584 69.632 10.24 10.24 67.584-69.632 10.24 10.24 12.288-12.288-10.24-10.24 67.584-69.632-10.24-10.24-67.584 69.632-10.24-10.24 51.2-51.2-34.816-32.768-51.2 51.2-10.24-10.24 53.248-55.296-24.576-22.528 18.432-18.432-10.24-10.24-18.432 18.432-22.528-22.528-53.248 53.248zM641.024 682.667c-14.336-32.768-34.816-67.584-57.344-104.448l-14.336 8.192c22.528 34.816 40.96 67.584 57.344 102.4l14.336-6.144zM659.456 424.619l-151.552 155.648 12.288 12.288 51.2-53.248 139.264 137.216 12.288-12.288-139.264-137.216 24.576-24.576 139.264 137.216 12.288-12.288-141.312-139.264 51.2-53.248-10.24-10.24zM737.28 330.411l10.24 10.24-45.056 45.056-10.24-10.24-12.288 12.288 65.536 65.536 67.584-69.632-65.536-65.536-10.24 12.288zM964.608 385.707c-24.576-12.288-47.104-24.576-67.584-32.768-4.096-28.672-10.24-49.152-20.48-59.392s-20.48-16.384-28.672-14.336c-8.192 0-20.48 8.192-34.816 22.528l10.24 16.384c4.096-6.144 8.192-10.24 12.288-12.288 6.144-6.144 12.288-8.192 16.384-8.192s8.192 4.096 16.384 10.24c10.24 10.24 16.384 30.72 20.48 61.44 20.48 8.192 40.96 18.432 65.536 30.72l-30.72 30.72-141.312-139.264-12.288 12.288 153.6 149.504 57.344-57.344-16.384-10.24zM566.869 740.651l-14.635-14.336-38.741 39.467 14.635 14.336 38.741-39.467z" />
<glyph unicode="&#xe95e;" glyph-name="business_qun1" d="M866.304 481.963l-16.384 16.384c-8.192-6.144-14.336-12.288-20.48-18.432l18.432-18.432 18.432 20.48zM469.035 722.646l13.141 12.885 41.6-42.411-13.141-12.885-41.6 42.411zM566.869 740.651l-14.635-14.336-38.741 39.467 14.635 14.336 38.741-39.467zM488.064 658.347l-41.6 42.411 13.141 12.885 41.6-42.411-13.141-12.885zM478.336 831.659l38.741-39.467-14.635-14.336-38.741 39.467 14.635 14.336zM725.845 386.987l29.227 28.672 27.264-27.776-29.227-28.672-27.264 27.776zM835.584 451.243l-18.432 18.432c-8.192-6.144-16.384-12.288-22.528-16.384l20.48-22.528 20.48 20.48zM581.632 938.667h-581.632l1024-1017.856v581.632l-442.368 436.224zM770.048 543.403c-36.864-22.528-71.68-40.96-106.496-51.2l-6.144 16.384c30.72 10.24 65.536 26.624 104.448 51.2l8.192-16.384zM436.224 688.811l-12.288-12.288c-10.24-10.24-20.48-8.192-30.72 2.048l-20.48 22.528 10.24 14.336c6.144-8.192 12.288-14.336 18.432-20.48 4.096-4.096 10.24-4.096 14.336 0l8.192 8.192-57.344 57.344 10.24 10.24 57.344-57.344 12.288 12.288-71.68 73.728 10.24 10.24 71.68-73.728 14.336 12.288-57.344 57.344 10.24 10.24 57.344-57.344 10.24 10.24-51.2 51.2 34.816 32.768 51.2-51.2 10.24 10.24-67.584 69.632 10.24 10.24 67.584-69.632 10.24 10.24 12.288-12.288-10.24-10.24 67.584-69.632-10.24-10.24-67.584 69.632-10.24-10.24 51.2-51.2-34.816-32.768-51.2 51.2-10.24-10.24 53.248-55.296-24.576-22.528 18.432-18.432-10.24-10.24-18.432 18.432-22.528-22.528-53.248 53.248zM641.024 682.667c-14.336-32.768-34.816-67.584-57.344-104.448l-14.336 8.192c22.528 34.816 40.96 67.584 57.344 102.4l14.336-6.144zM659.456 424.619l-151.552 155.648 12.288 12.288 51.2-53.248 139.264 137.216 12.288-12.288-139.264-137.216 24.576-24.576 139.264 137.216 12.288-12.288-141.312-139.264 51.2-53.248-10.24-10.24zM731.136 338.603l10.24 10.24-26.624 28.672-12.288-12.288-10.24 10.24 53.248 51.2c-14.336-6.144-28.672-8.192-43.008-8.192l4.096 16.384c20.48 2.048 40.96 8.192 63.488 20.48l-14.336 14.336 10.24 10.24 16.384-16.384c8.192 4.096 14.336 10.24 22.528 16.384l-22.528 22.528 10.24 10.24 24.576-24.576c6.144 6.144 14.336 12.288 20.48 18.432l-20.48 20.48 10.24 10.24 59.392-59.392-30.72-30.72 10.24-10.24-10.24-10.24-10.24 10.24-30.72-30.72-34.816 36.864c-8.192-4.096-14.336-8.192-22.528-12.288l45.056-45.056-61.44-61.44-10.24 14.336zM948.224 367.275l-12.288-12.288-28.672 30.72-24.576-24.576 24.576-24.576-12.288-12.288-24.576 24.576-24.576-24.576 32.768-32.768-12.288-12.288-32.768 32.768-40.96-38.912-12.288 12.288 40.96 38.912-32.768 32.768 12.288 12.288 32.768-32.768 24.576 24.576-26.624 26.624 12.288 12.288 26.624-26.624 24.576 24.576-30.72 30.72 12.288 12.288 20.48-20.48c6.144 14.336 10.24 28.672 14.336 43.008l16.384-6.144c-4.096-14.336-8.192-28.672-12.288-43.008l-16.384 6.144 18.432-20.48c16.384 6.144 30.72 12.288 47.104 20.48l8.192-16.384c-14.336-8.192-28.672-12.288-43.008-16.384l18.432-20.48z" />
<glyph unicode="&#xe960;" glyph-name="calculate_social_security" d="M792.107 694.699c0 9.045-6.016 15.061-15.061 15.061h-572.245c-9.045 0-15.061-6.016-15.061-15.061s6.016-15.061 15.061-15.061h572.245c9.045 0 15.061 6.016 15.061 15.061zM575.232 11.051h-427.691c-18.091 0-30.123 12.032-30.123 30.123v789.077c0 15.061 15.061 30.123 30.123 30.123h680.661c18.091 0 30.123-12.032 30.123-30.123v-421.632c0-9.045 6.016-15.061 15.061-15.061s15.061 6.016 15.061 15.061v421.632c0 33.109-27.093 60.245-60.245 60.245h-680.661c-33.109 0-60.245-27.093-60.245-60.245v-789.077c0-33.109 27.093-60.245 60.245-60.245h427.691c9.045 0 15.061 6.016 15.061 15.061s-6.016 15.061-15.061 15.061zM256 562.176c-33.109 0-60.245-27.093-60.245-60.245s27.093-60.245 60.245-60.245 60.245 27.093 60.245 60.245-27.093 60.245-60.245 60.245zM256 471.851c-18.091 0-30.123 12.032-30.123 30.123s12.032 30.123 30.123 30.123c18.091 0 30.123-12.032 30.123-30.123s-12.032-30.123-30.123-30.123zM487.893 562.176c-33.109 0-60.245-27.093-60.245-60.245s27.093-60.245 60.245-60.245c33.109 0 60.245 27.093 60.245 60.245s-27.093 60.245-60.245 60.245zM487.893 471.851c-18.091 0-30.123 12.032-30.123 30.123s12.032 30.123 30.123 30.123c18.091 0 30.123-12.032 30.123-30.123s-12.032-30.123-30.123-30.123zM719.829 562.176c-33.109 0-60.245-27.093-60.245-60.245s27.093-60.245 60.245-60.245 60.245 27.093 60.245 60.245-27.093 60.245-60.245 60.245zM719.829 471.851c-18.091 0-30.123 12.032-30.123 30.123s12.032 30.123 30.123 30.123 30.123-12.032 30.123-30.123c0-18.091-12.032-30.123-30.123-30.123zM256 357.376c-33.109 0-60.245-27.093-60.245-60.245s27.093-60.245 60.245-60.245 60.245 27.093 60.245 60.245-27.093 60.245-60.245 60.245zM256 267.051c-18.091 0-30.123 12.032-30.123 30.123s12.032 30.123 30.123 30.123c18.091 0 30.123-12.032 30.123-30.123s-12.032-30.123-30.123-30.123zM487.893 357.376c-33.109 0-60.245-27.093-60.245-60.245s27.093-60.245 60.245-60.245c33.109 0 60.245 27.093 60.245 60.245s-27.093 60.245-60.245 60.245zM487.893 267.051c-18.091 0-30.123 12.032-30.123 30.123s12.032 30.123 30.123 30.123c18.091 0 30.123-12.032 30.123-30.123s-12.032-30.123-30.123-30.123zM957.739 143.574c0 96.384-72.277 174.677-165.632 183.723v15.061c0 9.045-6.016 15.061-15.061 15.061s-15.061-6.016-15.061-15.061v-15.061c-96.384-6.016-171.691-84.309-171.691-183.723 0-9.045 6.016-15.061 15.061-15.061h153.6v-117.461c0-12.032-9.045-21.077-21.077-21.077s-21.077 9.045-21.077 21.077c0 9.045-6.016 15.061-15.061 15.061s-15.061-6.016-15.061-15.061c0-27.093 21.077-51.2 51.2-51.2s54.229 24.107 51.2 51.2v117.461h156.629c9.045 0 15.061 6.016 12.032 15.061zM749.909 294.144l-51.2-135.509h-75.307c6.016 69.291 57.216 123.477 126.507 135.509zM731.861 158.635l42.155 111.445 42.155-111.445h-84.309zM846.293 158.635l-51.2 135.509c72.277-9.045 126.507-63.232 135.509-135.509h-84.309z" />
<glyph unicode="&#xe963;" glyph-name="center1" d="M475.691 738.006l46.805 45.867 48.768-49.707-46.805-45.867-48.768 49.707zM537.472 674.176l46.805 45.867 48.768-49.707-46.805-45.867-48.768 49.707zM581.632 938.667h-581.632l1024-1017.856v581.632l-442.368 436.224zM821.248 549.547l16.384-4.096c-2.048-32.768-4.096-59.392-8.192-81.92l-16.384 4.096c4.096 22.528 8.192 49.152 8.192 81.92zM563.2 600.747l10.24 10.24-49.152 51.2-59.392-59.392-12.288 12.288 59.392 59.392-49.152 49.152-10.24-10.24-12.288 12.288 81.92 79.872 61.44-63.488 30.72 30.72 12.288-12.288-30.72-30.72 61.44-63.488-81.92-79.872-12.288 14.336zM643.072 488.107c30.72 12.288 61.44 30.72 92.16 53.248l10.24-14.336c-34.816-24.576-67.584-43.008-98.304-55.296l-4.096 16.384zM739.328 350.891c-8.192 0-14.336 2.048-22.528 8.192l-38.912 38.912c-12.288 12.288-12.288 24.576 0 34.816l100.352 98.304 12.288-12.288-98.304-96.256c-6.144-6.144-4.096-10.24 2.048-16.384l32.768-32.768c4.096-4.096 8.192-6.144 14.336-4.096s20.48 12.288 40.96 30.72l8.192-16.384c-24.576-18.432-43.008-30.72-51.2-32.768zM806.912 332.459l-16.384 6.144c18.432 36.864 34.816 71.68 45.056 102.4l16.384-8.192c-12.288-32.768-26.624-65.536-45.056-100.352z" />
<glyph unicode="&#xe965;" glyph-name="choice" d="M975.061 730.624c-11.349 11.349-28.416 11.349-39.765 0l-548.267-548.267-298.283 295.424c-11.349 11.349-28.416 11.349-39.765 0s-11.349-28.416 0-39.765l318.165-318.165c5.675-5.675 14.208-8.533 19.883-8.533s14.208 2.859 19.883 8.533l568.149 568.149c11.349 14.208 11.349 31.232 0 42.624z" />
<glyph unicode="&#xe966;" glyph-name="choice1" d="M512 903.424c-263.296 0-476.757-213.461-476.757-476.757s213.461-476.757 476.757-476.757c263.296 0 476.757 213.461 476.757 476.757s-213.461 476.757-476.757 476.757zM797.013 542.464l-307.584-306.773c-4.565-4.565-10.88-7.381-17.835-7.381s-13.269 2.816-17.835 7.381l-186.709 186.709c-6.016 4.651-9.813 11.861-9.813 19.968 0 13.909 11.264 25.173 25.173 25.173 8.32 0 15.659-4.011 20.267-10.24l169.045-169.045 289.621 289.835c4.565 4.565 10.88 7.381 17.835 7.381 13.909 0 25.216-11.307 25.216-25.216 0-6.955-2.816-13.269-7.381-17.835z" />
<glyph unicode="&#xe967;" glyph-name="chuangye" d="M813.483 340.864l-22.315 22.315c-8.789-12.373-16.171-26.624-21.376-41.856 16.427 3.456 31.104 10.539 44.117 19.797zM1022.763 294.784c0 0.171 0 0.341 0 0.555 0 31.787-12.928 60.587-33.792 81.365l-532.48 528.981c-20.779 20.651-49.365 33.365-80.981 33.365-0.341 0-0.683 0-0.981 0l-318.635-0.427c-0.555 0.043-1.237 0.043-1.92 0.043-21.931 0-39.723-17.792-39.723-39.723 0-11.819 5.163-22.443 13.355-29.696l927.787-923.051c7.253-7.68 17.536-12.459 28.928-12.459 21.931 0 39.723 17.792 39.723 39.723 0 0.555 0 1.152-0.043 1.707zM702.464 494.038c-23.083-15.36-49.536-29.141-77.44-39.979l-10.624 14.805c30.592 11.435 56.96 24.789 81.493 40.704zM602.709 600.96c-14.464-31.232-28.971-57.344-45.013-82.347l-12.928 10.453c14.379 21.931 28.928 47.616 41.813 74.283zM551.509 680.192l-81.92-81.92-13.312 12.715 81.92 81.92zM404.267 607.915l-32.555 32.555c-3.755 2.816-6.144 7.296-6.144 12.288s2.389 9.472 6.101 12.245l63.744 63.701h-12.885l2.859 17.835c3.797-0.171 8.192-0.256 12.672-0.256 22.571 0 44.587 2.347 65.792 6.741l7.339-9.771c-0.555-26.069-2.389-51.029-5.461-75.605l-16.64 3.541c3.029 18.219 5.376 40.277 6.485 62.677-15.616-1.792-34.005-3.968-52.779-4.693l46.251-46.933-38.485-37.291c-2.901-3.371-7.211-5.504-11.989-5.504s-9.088 2.133-11.947 5.504q-7.808 7.808-14.549 15.36l8.789 14.933c4.011-5.12 7.936-9.643 12.117-13.995 1.067-1.28 2.688-2.133 4.565-2.133s3.499 0.853 4.608 2.176l20.48 20.48-25.003 25.003-48.555-49.749c-1.493-1.195-2.475-3.072-2.475-5.12s0.939-3.925 2.432-5.12l23.381-23.339c4.096-4.096 7.595-5.547 10.667-4.523 6.144 2.987 11.392 6.699 16 11.093l7.979-16c-7.040-7.296-15.872-12.843-25.771-15.872-7.083 1.067-12.757 4.565-16.768 9.472zM450.56 558.763l-20.48 20.48 9.216 15.147c5.931-7.168 12.075-13.739 18.005-20.48s6.741-2.859 10.667 1.024l105.472 105.472 12.715-12.715-107.52-107.947c-3.072-4.779-8.363-7.936-14.379-7.936-5.589 0-10.539 2.688-13.653 6.869zM614.4 401.664l-119.381 119.808 12.501 12.501 38.912-38.912 105.472 105.259 12.715-12.715-105.472-105.259 16.171-16.171 105.472 105.259 12.715-12.715-104.661-105.472 39.125-39.125zM667.051 340.224l46.677 46.677-13.909 13.909c-15.659-14.421-34.176-26.069-54.528-34.005l-2.432 17.621c26.795 13.013 49.536 30.123 68.437 50.816l49.493 49.536 12.501-12.501-31.744-31.744 11.264-11.264 34.603 34.389 12.501-12.501-34.603-34.389 6.357-6.357-12.501-12.501-30.123 30.293-5.12-5.12-11.051-10.667 26.411-26.837-58.965-58.795zM865.493 363.776c-22.699 12.843-42.325 27.392-59.947 43.989l-17.664-17.963 48.939-48.939-10.837-10.837c-17.365-13.099-37.973-23.040-60.288-28.459-1.707-4.096-2.048-8.576-2.048-13.141 0-10.027 1.621-19.669 4.565-28.715l-17.579-4.053c-3.157 9.429-4.992 20.267-4.992 31.573 0 4.181 0.256 8.277 0.725 12.331-2.517-0.64-5.419-0.768-8.363-0.768-12.715 0-25.003 1.835-36.651 5.205l6.229 16.981c10.155-3.072 21.803-4.821 33.877-4.821 3.157 0 6.272 0.128 9.344 0.341 6.272 22.101 16.384 41.301 29.397 58.155l-3.371 2.645-11.264-11.264c-20.395-21.291-45.696-37.717-74.069-47.531l-1.323 17.621c24.832 9.216 45.952 23.168 63.232 40.917l52.053 52.053c18.987-18.859 40.576-35.029 64.256-48z" />
<glyph unicode="&#xe968;" glyph-name="close" d="M569.344 426.667l245.76 245.76c16.384 16.384 16.384 40.96 0 57.344s-40.96 16.384-57.344 0l-245.76-245.76-245.76 245.76c-16.384 16.384-40.96 16.384-57.344 0s-16.384-40.96 0-57.344l245.76-245.76-245.76-245.76c-16.384-16.384-16.384-40.96 0-57.344 8.192-8.192 18.432-12.288 28.672-12.288s20.48 4.096 28.672 12.288l245.76 245.76 245.76-245.76c8.192-8.192 18.432-12.288 28.672-12.288s20.48 4.096 28.672 12.288c16.384 16.384 16.384 40.96 0 57.344l-245.76 245.76z" />
<glyph unicode="&#xe969;" glyph-name="code" d="M384 93.867h-158.72c-28.16 0-33.28 17.92-33.28 46.080v596.48c0 28.16 5.12 48.64 33.28 48.64h486.4c28.16 0 71.68-20.48 71.68-48.64v-335.36c0-20.48 17.92-38.4 38.4-38.4s38.4 17.92 38.4 38.4v335.36c0 71.68-76.8 125.44-148.48 125.44h-486.4c-71.68 0-110.080-56.32-110.080-125.44v-596.48c0-71.68 38.4-122.88 110.080-122.88h158.72c20.48 0 38.4 17.92 38.4 38.4s-15.36 38.4-38.4 38.4zM652.8 541.867c0 20.48-17.92 38.4-38.4 38.4h-307.2c-20.48 0-38.4-17.92-38.4-38.4v0c0-20.48 17.92-38.4 38.4-38.4h307.2c20.48 0 38.4 17.92 38.4 38.4v0zM901.12 293.547v0c-17.92 17.92-43.52 17.92-58.88 2.56l-189.44-189.44-110.080 110.080c-15.36 15.36-43.52 15.36-58.88 0s-15.36-43.52 0-58.88l140.8-140.8c15.36-15.36 43.52-15.36 58.88 0 0 0 0 0 0 0s0 0 0 0l217.6 217.6c15.36 17.92 15.36 43.52 0 58.88zM550.4 362.667c0 20.48-17.92 38.4-38.4 38.4h-204.8c-20.48 0-38.4-17.92-38.4-38.4v0c0-20.48 17.92-38.4 38.4-38.4h204.8c20.48 0 38.4 17.92 38.4 38.4v0z" />
<glyph unicode="&#xe96a;" glyph-name="company" d="M983.040 46.976h-86.613v454.869c0 41.387-33.579 74.965-74.965 74.965h-191.275v168.149c0 45.227-36.693 81.92-81.92 81.92h-326.443c-45.227 0-81.92-36.693-81.92-81.92v-697.941h-78.421c-12.885 0-23.339-10.453-23.339-23.339s10.453-23.339 23.339-23.339h921.6c12.885 0 23.339 10.453 23.339 23.339s-10.453 23.339-23.339 23.339zM583.083 46.976h-397.099v697.941c0.128 19.755 16.085 35.712 35.84 35.84h325.632c19.755-0.128 35.712-16.085 35.84-35.84zM849.323 46.976h-219.136v482.091h191.275c15.616 0 28.245-12.672 28.245-28.245zM337.92 636.8h-86.613c-12.885 0-23.339-10.453-23.339-23.339s10.453-23.339 23.339-23.339h86.613c12.885 0 23.339 10.453 23.339 23.339s-10.453 23.339-23.339 23.339zM512 636.8h-87.467c-12.885 0-23.339-10.453-23.339-23.339s10.453-23.339 23.339-23.339h87.467c12.885 0 23.339 10.453 23.339 23.339s-10.453 23.339-23.339 23.339zM337.92 453.504h-86.613c-12.885 0-23.339-10.453-23.339-23.339s10.453-23.339 23.339-23.339h86.613c12.885 0 23.339 10.453 23.339 23.339s-10.453 23.339-23.339 23.339zM512 453.504h-87.467c-12.885 0-23.339-10.453-23.339-23.339s10.453-23.339 23.339-23.339h87.467c12.885 0 23.339 10.453 23.339 23.339s-10.453 23.339-23.339 23.339zM337.92 270.208h-86.613c-12.885 0-23.339-10.453-23.339-23.339s10.453-23.339 23.339-23.339h86.613c12.885 0 23.339 10.453 23.339 23.339s-10.453 23.339-23.339 23.339zM512 270.208h-87.467c-12.885 0-23.339-10.453-23.339-23.339s10.453-23.339 23.339-23.339h87.467c12.885 0 23.339 10.453 23.339 23.339s-10.453 23.339-23.339 23.339zM779.477 445.099h-86.613c-12.885 0-23.339-10.453-23.339-23.339s10.453-23.339 23.339-23.339h86.613c12.885 0 23.339 10.453 23.339 23.339s-10.453 23.339-23.339 23.339zM779.477 270.208h-86.613c-12.885 0-23.339-10.453-23.339-23.339s10.453-23.339 23.339-23.339h86.613c12.885 0 23.339 10.453 23.339 23.339s-10.453 23.339-23.339 23.339z" />
<glyph unicode="&#xe96b;" glyph-name="company2" d="M916.48 554.667c0 0-355.84 0-366.080 0v220.16c0 64-46.080 112.64-110.080 112.64h-309.76c-61.44 0-117.76-48.64-117.76-112.64v-668.16c0-64 56.32-117.76 117.76-117.76h785.92c53.76 0 94.72 46.080 94.72 99.84v378.88c0 51.2-40.96 87.040-94.72 87.040zM130.56 68.267c-20.48 0-40.96 20.48-40.96 40.96v665.6c0 20.48 20.48 35.84 40.96 35.84h309.76c20.48 0 33.28-15.36 33.28-35.84v-289.28c0-7.68 0-12.8 0-20.48v-396.8h-343.040zM704 219.307l76.8-2.56v-122.88h-74.24l-2.56 125.44zM934.4 91.307c0-10.24-7.68-23.040-17.92-23.040h-58.88v148.48c0 40.96-30.72 81.92-71.68 81.92h-79.36c-40.96 0-76.8-40.96-76.8-81.92v-148.48h-76.8v409.6c5.12 0 366.080 0 366.080 0 10.24 0 17.92 0 17.92-10.24v-376.32zM422.4 657.067c0 12.8-10.24 25.6-25.6 25.6h-204.8c-12.8 0-25.6-10.24-25.6-25.6v-25.6c0-12.8 10.24-25.6 25.6-25.6h207.36c12.8 0 25.6 10.24 25.6 25.6v25.6zM422.4 477.867c0 12.8-10.24 25.6-25.6 25.6h-204.8c-12.8 0-25.6-10.24-25.6-25.6v-25.6c0-12.8 10.24-25.6 25.6-25.6h207.36c12.8 0 25.6 10.24 25.6 25.6v25.6zM422.4 298.667c0 12.8-10.24 25.6-25.6 25.6h-204.8c-12.8 0-25.6-10.24-25.6-25.6v-25.6c0-12.8 10.24-25.6 25.6-25.6h207.36c12.8 0 25.6 10.24 25.6 25.6v25.6z" />
<glyph unicode="&#xe96d;" glyph-name="cost_staff" d="M602.368 360.406c-9.045 3.029-21.077 6.016-30.123 9.045 99.371 39.168 168.661 132.523 168.661 243.968 0 147.584-117.461 268.032-265.045 268.032s-265.045-120.491-265.045-265.045c0-114.432 72.277-207.829 171.691-246.955-168.661-42.155-292.139-195.755-292.139-373.461 0-9.045 6.016-15.061 15.061-15.061s15.061 6.016 15.061 15.061c0 195.755 159.616 355.371 358.4 355.371 39.168 0 78.293-6.016 114.432-18.091 6.016-3.029 15.061 0 18.091 9.045 3.029 6.016 0 15.061-9.045 18.091zM240.939 613.376c0 129.493 105.429 234.923 234.923 234.923s234.923-105.429 234.923-234.923c0-120.491-90.368-219.861-204.8-231.893-9.045 0-18.091 0-30.123 0-9.045 0-18.091 0-27.093 0-117.461 12.032-207.829 111.445-207.829 231.893zM969.771 254.976c-18.091 39.168-114.432 48.171-174.677 48.171s-159.616-9.045-174.677-48.171c-3.029-3.029-3.029-6.016-3.029-9.045v-240.939c0-48.171 111.445-60.245 177.707-60.245s177.707 12.032 177.707 60.245v240.939c0 3.029 0 6.016-3.029 9.045zM942.677 89.344v-6.016c-3.029-9.045-51.2-30.123-147.584-30.123s-144.555 21.077-147.584 30.123v42.155c39.168-18.091 102.4-24.107 147.584-24.107s108.416 6.016 147.584 24.107v-36.139zM942.677 167.638v-6.016c-3.029-9.045-51.2-30.123-147.584-30.123s-144.555 21.077-147.584 30.123v45.184c39.168-18.091 102.4-24.107 147.584-24.107s108.416 6.016 147.584 24.107v-39.168zM795.093 276.096c96.384 0 144.555-21.077 147.584-30.123-3.029-9.045-51.2-30.123-147.584-30.123s-144.555 21.077-147.584 30.123c3.029 9.045 51.2 30.123 147.584 30.123zM795.093-25.088c-96.384 0-144.555 21.077-147.584 30.123v42.155c39.168-18.091 102.4-24.107 147.584-24.107s108.416 6.016 147.584 24.107v-42.155c-3.029-9.045-51.2-30.123-147.584-30.123z" />
<glyph unicode="&#xe970;" glyph-name="customer" d="M382.976 451.243c0-21.504-17.408-38.912-38.912-38.912s-38.912 17.408-38.912 38.912c0 21.504 17.408 38.912 38.912 38.912s38.912-17.408 38.912-38.912zM552.96 451.243c0-21.504-17.408-38.912-38.912-38.912s-38.912 17.408-38.912 38.912c0 21.504 17.408 38.912 38.912 38.912s38.912-17.408 38.912-38.912zM724.992 451.243c0-21.504-17.408-38.912-38.912-38.912s-38.912 17.408-38.912 38.912c0 21.504 17.408 38.912 38.912 38.912s38.912-17.408 38.912-38.912zM514.048 934.571c-208.896 0-378.88-137.216-432.128-333.824-49.152-34.816-77.824-92.16-75.776-151.552 0-98.304 59.392-178.176 157.696-178.176 20.48 0 36.864 18.432 36.864 38.912v274.432c0 18.432-12.288 32.768-28.672 38.912 53.248 141.312 190.464 235.52 342.016 237.568 151.552-2.048 286.72-96.256 342.016-237.568-18.432-4.096-30.72-20.48-28.672-38.912v-274.432c0-20.48 16.384-38.912 38.912-38.912v0c8.192 0 16.384 0 24.576 4.096-8.192-63.488-40.96-120.832-88.064-161.792-75.776-73.728-135.168-71.68-135.168-71.68-18.432 47.104-63.488 75.776-114.688 71.68-63.488 0-118.784-43.008-118.784-96.256 0-55.296 51.2-96.256 118.784-96.256 49.152-2.048 94.208 26.624 114.688 71.68 57.344 12.288 110.592 36.864 155.648 75.776 69.632 55.296 112.64 137.216 116.736 225.28 51.2 34.816 79.872 92.16 81.92 153.6 2.048 59.392-26.624 118.784-75.776 151.552-53.248 196.608-225.28 335.872-432.128 335.872z" />
<glyph unicode="&#xe971;" glyph-name="date" d="M431.317 752.171h188.288c16.128 0 26.923 10.752 26.923 26.923s-10.752 26.923-26.923 26.923h-188.288c-16.128 0-26.923-10.752-26.923-26.923s10.752-26.923 26.923-26.923zM810.581 805.974h-51.115c-16.128 0-26.923-10.752-26.923-26.923s10.752-26.923 26.923-26.923h51.115c48.427 0 86.059-37.675 86.059-86.059v-51.115h-769.323v51.115c0 48.427 37.675 86.059 86.059 86.059h75.307c16.128 0 26.923 10.752 26.923 26.923s-10.752 26.923-26.923 26.923h-75.307c-77.995 0-139.861-61.867-139.861-139.861v-535.296c0-77.995 61.867-139.861 139.861-139.861h599.851c77.995 0 139.861 61.867 139.861 139.861v535.296c-2.688 75.307-64.555 139.861-142.549 139.861zM896.683 130.774c0-48.427-37.675-86.059-86.059-86.059h-597.163c-48.427 0-86.059 37.675-86.059 86.059v430.379h772.011v-430.379zM283.349 332.502c40.363 0 75.307 32.299 75.307 75.307s-34.987 72.619-75.307 72.619c-40.363 0-75.307-32.299-75.307-75.307s34.987-72.619 75.307-72.619zM283.349 426.667c10.752 0 21.504-8.064 21.504-21.504 0-10.752-8.064-21.504-21.504-21.504-10.752 0-21.504 8.064-21.504 21.504 2.688 13.44 10.752 21.504 21.504 21.504zM514.688 332.502c40.363 0 75.307 32.299 75.307 75.307s-34.987 72.619-75.307 72.619-75.307-32.299-75.307-75.307 34.987-72.619 75.307-72.619zM514.688 426.667c10.752 0 21.504-8.064 21.504-21.504 0-10.752-8.064-21.504-21.504-21.504s-21.504 8.064-21.504 21.504c0 13.44 10.752 21.504 21.504 21.504zM746.027 332.502c40.363 0 75.307 32.299 75.307 75.307s-34.987 72.619-75.307 72.619c-40.363 0-75.307-32.299-75.307-75.307s32.299-72.619 75.307-72.619zM746.027 426.667c10.752 0 21.504-8.064 21.504-21.504 0-10.752-8.064-21.504-21.504-21.504-10.752 0-21.504 8.064-21.504 21.504s8.064 21.504 21.504 21.504zM283.349 144.214c40.363 0 75.307 32.299 75.307 75.307 0 40.363-32.299 75.307-75.307 75.307-40.363 0-75.307-32.299-75.307-75.307 2.688-43.051 34.987-75.307 75.307-75.307zM283.349 238.379c10.752 0 21.504-8.064 21.504-21.504 0-10.752-8.064-21.504-21.504-21.504-10.752 0-21.504 8.064-21.504 21.504 2.688 13.44 10.752 21.504 21.504 21.504zM514.688 144.214c40.363 0 75.307 32.299 75.307 75.307 0 40.363-32.299 75.307-75.307 75.307s-75.307-32.299-75.307-75.307c0-43.051 34.987-75.307 75.307-75.307zM514.688 238.379c10.752 0 21.504-8.064 21.504-21.504 0-10.752-8.064-21.504-21.504-21.504s-21.504 8.064-21.504 21.504c0 13.44 10.752 21.504 21.504 21.504zM746.027 144.214c40.363 0 75.307 32.299 75.307 75.307 0 40.363-32.299 75.307-75.307 75.307-40.363 0-75.307-32.299-75.307-75.307s32.299-75.307 75.307-75.307zM746.027 238.379c10.752 0 21.504-8.064 21.504-21.504 0-10.752-8.064-21.504-21.504-21.504-10.752 0-21.504 8.064-21.504 21.504s8.064 21.504 21.504 21.504zM692.224 701.056c18.816 0 32.299 13.44 32.299 32.299v96.853c0 18.816-13.44 32.299-32.299 32.299s-32.299-13.44-32.299-32.299v-99.541c0-16.128 13.44-29.568 32.299-29.568zM355.968 701.056c18.816 0 32.299 13.44 32.299 32.299v96.853c0 18.816-13.44 32.299-32.299 32.299-16.128 0-32.299-13.44-32.299-32.299v-99.541c0-16.128 16.128-29.568 32.299-29.568z" />
<glyph unicode="&#xe975;" glyph-name="delete5" d="M782.805 576.598c-14.507 0-24.192-9.685-24.192-24.192v-418.304c0-43.52-33.835-77.397-77.355-77.397h-336.085c-43.52 0-77.397 33.835-77.397 77.397v418.304c0 14.507-9.685 24.192-24.192 24.192s-24.192-9.685-24.192-24.192v-418.304c0-70.101 55.595-125.739 125.739-125.739h336.085c70.101 0 125.739 55.595 125.739 125.739v418.304c0 12.075-12.075 24.192-24.192 24.192zM906.112 680.534h-157.184v74.965c0 50.773-38.699 89.472-84.608 89.472h-307.072c-45.952 0-84.608-41.088-84.608-89.472v-74.965h-154.752c-14.507 0-24.192-9.685-24.192-24.192s9.685-24.192 24.192-24.192h790.656c14.507 0 24.192 9.685 24.192 24.192-2.432 12.075-12.075 24.192-26.581 24.192zM703.019 680.534h-382.037v74.965c0 24.192 16.939 41.088 36.267 41.088h309.504c19.328 0 36.267-19.328 36.267-41.088v-74.965zM444.288 189.696v362.667c0 14.507-9.685 24.192-24.192 24.192s-24.192-9.685-24.192-24.192v-362.667c0-14.507 9.685-24.192 24.192-24.192s24.192 9.685 24.192 24.192zM628.053 189.696v362.667c0 14.507-9.685 24.192-24.192 24.192s-24.192-9.685-24.192-24.192v-362.667c0-14.507 9.685-24.192 24.192-24.192s24.192 9.685 24.192 24.192z" />
<glyph unicode="&#xe976;" glyph-name="delete6" d="M549.973 426.667l344.448 344.448c10.837 10.837 10.837 27.136 0 37.973s-27.136 10.837-37.973 0l-344.448-344.448-344.448 344.448c-10.837 10.837-27.136 10.837-37.973 0s-10.837-27.136 0-37.973l344.448-344.448-344.448-344.448c-10.837-10.837-10.837-27.136 0-37.973 5.419-5.419 13.568-8.149 18.987-8.149s13.568 2.688 18.987 8.149l344.448 344.448 344.448-344.448c5.419-5.419 13.568-8.149 18.987-8.149s13.568 2.688 18.987 8.149c10.837 10.837 10.837 27.136 0 37.973l-344.448 344.448z" />
<glyph unicode="&#xe977;" glyph-name="derivation" d="M956.459 447.574l-194.219 194.219c-5.419 5.803-13.099 9.429-21.675 9.429-16.341 0-29.611-13.269-29.611-29.611 0-8.533 3.627-16.256 9.387-21.632l143.701-143.701h-425.899c-16.341 0-29.611-13.269-29.611-29.611s13.269-29.611 29.611-29.611h425.899l-143.659-143.659c-5.803-5.419-9.429-13.099-9.429-21.675 0-16.341 13.269-29.611 29.611-29.611 8.533 0 16.256 3.627 21.632 9.387l194.219 194.219c5.333 5.376 8.661 12.757 8.661 20.907s-3.328 15.573-8.661 20.907zM877.909 243.115c-0.256 0-0.512 0-0.768 0-16.341 0-29.611-13.269-29.611-29.611 0 0 0 0 0 0v-86.827c0-35.968-29.141-65.109-65.109-65.109h-599.168c-0.256 0-0.512 0-0.768 0-35.968 0-65.109 29.141-65.109 65.109 0 0 0 0 0 0v599.979c0 35.968 29.141 65.109 65.109 65.109h599.979c35.968 0 65.109-29.141 65.109-65.109v-69.077c0-16.341 13.269-29.611 29.611-29.611s29.611 13.269 29.611 29.611v69.077c-0.128 68.608-55.723 124.245-124.331 124.331h-599.211c-0.171 0-0.384 0-0.597 0-68.693 0-124.416-55.637-124.544-124.331v-599.979c0.128-68.608 55.723-124.245 124.331-124.331h599.979c68.608 0.128 124.245 55.723 124.331 124.331v86.869c0 0 0 0 0 0 0 16.085-12.8 29.141-28.757 29.611z" />
<glyph unicode="&#xe97f;" glyph-name="dinzhiban" d="M792.875 341.206l-20.949 22.699c-10.453-13.952-17.451-27.904-22.699-41.856 15.701 1.749 29.653 8.704 43.605 19.2zM984.747 362.112l-532.053 532.053c-20.949 20.949-50.603 33.152-82.005 33.152h-320.981c-34.901 0-54.059-43.605-27.904-68.053l929.792-929.792c24.405-24.405 68.053-6.997 68.053 27.904v322.731c0 31.403-12.203 59.307-34.901 82.005zM688.171 527.83l-83.755-80.256-12.203 12.203 83.755 80.256 12.203-12.203zM473.643 751.147l48.853-50.603c1.749 5.248 5.248 12.203 5.248 17.451l15.701-12.203c-1.749-5.248-5.248-12.203-8.704-19.2l47.104-48.853-31.403-29.653-12.203 12.203 19.2 17.451-85.461 88.96-19.2-19.2-12.203 12.203 33.152 31.403zM475.349 527.83l-12.203 12.203c-27.904 27.904-43.605 52.352-50.603 68.053-3.499 12.203-5.248 26.155-1.749 38.357-15.701-5.248-31.403-6.997-45.355-6.997l1.749 19.2c26.155 0 52.352 8.704 78.507 26.155l10.453-13.952c-8.704-5.248-19.2-10.453-27.904-15.701-5.248-15.701-3.499-31.403 1.749-43.605l1.749-1.749 55.808 52.352-33.152 34.901 12.203 12.203 76.757-80.256-12.203-12.203-31.403 33.152-20.949-19.2 36.651-38.357-12.203-12.203-40.107 38.357-24.405-24.405c6.997-10.453 17.451-22.699 29.653-36.651 6.997-6.997 13.952-13.952 20.949-19.2l-13.952-10.453zM550.357 463.318l-6.997 6.997 8.704 15.701 5.248-6.997c3.499-3.499 6.997-3.499 10.453-1.749l20.949 20.949-13.952 13.952-47.104-45.355-10.453 12.203 47.104 45.355-13.952 13.952-38.357-36.651-12.203 12.203 50.603 48.853 26.155-26.155 12.203 10.453-29.653 31.403 12.203 12.203 29.653-31.403 13.952 13.952-15.701 15.701c-6.997-3.499-13.952-3.499-20.949-3.499l-1.749 17.451c13.952 0 26.155 5.248 41.856 15.701l10.453-13.952c-5.248-3.499-8.704-5.248-12.203-6.997l12.203-12.203 15.701 15.701 12.203-12.203-15.701-15.701 22.699-24.405-12.203-10.453-22.699 24.405-13.952-13.952 27.904-27.904-12.203-12.203-27.904 27.904-12.203-10.453 24.405-26.155-36.651-34.901c-10.453-12.203-19.2-10.453-27.904-1.749zM588.757 407.467l-19.2 19.2 10.453 13.952c5.248-6.997 10.453-13.952 17.451-19.2 3.499-3.499 6.997-3.499 10.453 0l106.411 102.912 12.203-12.203-109.909-104.661c-10.453-10.453-19.2-10.453-27.904 0zM648.064 342.912l47.104 45.355-13.952 13.952c-20.949-17.451-40.107-27.904-55.808-33.152l-1.749 17.451c17.451 6.997 41.856 22.699 69.76 48.853l50.603 47.104 12.203-12.203-31.403-31.403 10.453-12.203 34.901 33.152 12.203-12.203-34.901-33.152 6.997-6.997-12.203-12.203-29.653 33.152-5.248-5.248c-3.499-3.499-6.997-6.997-10.453-10.453l24.405-26.155-61.056-55.808-12.203 12.203zM846.933 362.112c-19.2 12.203-38.357 26.155-57.557 45.355l-17.451-17.451 45.355-50.603-10.453-10.453c-20.949-13.952-41.856-22.699-61.056-27.904-1.749-13.952-1.749-27.904 1.749-40.107l-17.451-5.248c-3.499 13.952-5.248 27.904-3.499 43.605-13.952 0-29.653 1.749-43.605 6.997l5.248 17.451c13.952-5.248 27.904-6.997 41.856-5.248 5.248 19.2 15.701 36.651 29.653 57.557l-3.499 3.499-12.203-10.453c-26.155-24.405-52.352-40.107-76.757-45.355l1.749 17.451c19.2 5.248 40.107 19.2 62.805 40.107l52.352 50.603c20.949-20.949 41.856-38.357 64.555-50.603l-1.749-19.2z" />
<glyph unicode="&#xe981;" glyph-name="display" d="M512 773.675c-94.848 0-173.525-78.635-173.525-173.525s78.635-173.525 173.525-173.525c94.848 0 173.525 78.635 173.525 173.525s-78.635 173.525-173.525 173.525zM512 472.918c-69.419 0-127.232 57.856-127.232 127.232s57.856 127.232 127.232 127.232c69.419 0 127.232-57.856 127.232-127.232 0-71.723-57.856-127.232-127.232-127.232zM979.328 637.184c-55.509 83.285-208.213 277.589-467.328 277.589-256.811 0-411.776-194.347-467.328-277.589-16.171-23.125-16.171-53.205 0-76.331 55.509-83.285 208.213-277.589 467.328-277.589 256.811 0 411.776 194.347 467.328 277.589 13.867 23.125 13.867 53.205 0 76.331zM939.989 586.283c-50.901-76.331-192-256.811-427.989-256.811-233.643 0-377.088 180.437-427.989 256.811-4.608 6.955-4.608 18.517 0 25.429v0c50.901 78.635 194.347 259.115 427.989 259.115s377.088-180.437 427.989-256.811c4.608-9.259 4.608-18.517 0-27.776zM287.616 14.891c0-42.155-34.176-76.331-76.331-76.331s-76.331 34.176-76.331 76.331c0 42.155 34.176 76.331 76.331 76.331s76.331-34.176 76.331-76.331zM588.331 14.891c0-42.155-34.176-76.331-76.331-76.331s-76.331 34.176-76.331 76.331c0 42.155 34.176 76.331 76.331 76.331s76.331-34.176 76.331-76.331zM889.088 14.891c0-42.155-34.176-76.331-76.331-76.331s-76.331 34.176-76.331 76.331c0 42.155 34.176 76.331 76.331 76.331s76.331-34.176 76.331-76.331z" />
<glyph unicode="&#xe983;" glyph-name="document1" d="M891.179 700.672h-393.003c-8.32 0-13.824 5.547-13.824 13.824l-5.547 41.515c-8.32 52.565-52.565 94.080-107.947 94.080h-221.397c-83.029 0-149.461-66.432-149.461-149.461v-542.464c0-83.029 66.432-149.461 149.461-149.461h722.347c83.029 0 149.461 66.432 149.461 149.461v415.147c2.773 69.205-55.339 127.317-130.091 127.317zM968.661 155.435c0-52.565-41.515-94.080-94.080-94.080h-725.077c-52.565 0-94.080 41.515-94.080 94.080v542.464c0 52.565 41.515 94.080 94.080 94.080h221.397c24.917 0 49.792-19.371 52.565-44.288l5.547-41.515c5.547-33.195 35.968-60.885 69.205-60.885h393.003c41.515 0 77.483-33.195 77.483-77.483v-412.373zM542.464 778.155h370.859c16.597 0 27.691 11.093 27.691 27.691s-11.093 27.691-27.691 27.691h-370.859c-16.597 0-27.691-11.093-27.691-27.691s11.093-27.691 27.691-27.691z" />
<glyph unicode="&#xe984;" glyph-name="document2" d="M889.259 145.28c-4.651 4.651-11.051 7.509-18.133 7.509s-13.483-2.859-18.133-7.509l-130.645-130.645c-6.571-4.693-10.795-12.288-10.795-20.907 0-14.123 11.477-25.6 25.6-25.6 8.448 0 15.915 4.096 20.565 10.368l130.731 130.731c4.821 4.651 7.851 11.179 7.851 18.432 0 6.827-2.688 13.013-7.040 17.621zM871.211 166.784c14.123 0 25.6 11.477 25.6 25.6v599.040c0 50.219-40.704 90.923-90.923 90.923h-587.776c-0.043 0-0.128 0-0.213 0-50.091 0-90.709-40.619-90.709-90.709 0-0.085 0-0.128 0-0.213v-729.472c0-0.043 0-0.128 0-0.213 0-50.091 40.619-90.709 90.709-90.709 0.085 0 0.128 0 0.213 0h457.728c13.867 0.341 25.003 11.691 25.003 25.6 0 0 0 0 0 0v130.645c0 0.043 0 0.043 0 0.085 0 10.923 4.48 20.821 11.691 27.947v0c7.125 7.211 17.024 11.691 27.947 11.691 0.043 0 0.085 0 0.085 0zM675.84 191.36c-16.427-16.341-26.624-38.955-26.624-63.957 0-0.128 0-0.256 0-0.384v-105.045h-431.104c-0.043 0-0.128 0-0.213 0-21.845 0-39.509 17.707-39.509 39.509 0 0.085 0 0.128 0 0.213v729.685c0 0.043 0 0.128 0 0.213 0 21.845 17.707 39.509 39.509 39.509 0.085 0 0.128 0 0.213 0h587.563c21.931 0 39.723-17.792 39.723-39.723v-573.44h-104.875c-0.213 0-0.427 0-0.683 0-25.045 0-47.659-10.197-64.043-26.624z" />
<glyph unicode="&#xe985;" glyph-name="download" d="M545.792 114.902h-441.643c-25.984 0-49.365 20.779-49.365 49.365v576.768c0 25.984 20.779 49.365 49.365 49.365h296.192c5.205 0 7.808-2.603 10.411-5.205l31.189-41.557c12.971-15.573 31.189-25.984 51.968-25.984h355.925c25.984 0 49.365-20.779 49.365-49.365v-168.875c0-15.573 10.411-25.984 25.984-25.984s25.984 10.411 25.984 25.984v168.875c0 54.571-44.16 101.333-101.333 101.333h-350.72c-5.205 0-7.808 2.603-10.411 5.205l-31.189 41.557c-12.971 15.573-31.189 25.984-51.968 25.984h-301.355c-54.571 0-101.333-44.16-101.333-101.333v-576.768c0-54.571 44.16-101.333 101.333-101.333h441.643c15.573 0 25.984 10.411 25.984 25.984 0 12.971-10.411 25.984-25.984 25.984zM792.576 463.019c-124.715 0-226.005-101.333-226.005-226.005s101.333-226.005 226.005-226.005 226.005 101.333 226.005 226.005c0 124.715-101.333 226.005-226.005 226.005zM792.576 65.536c-96.128 0-174.080 77.952-174.080 174.080s77.952 174.080 174.080 174.080c96.128 0 174.080-77.952 174.080-174.080s-77.952-174.080-174.080-174.080zM862.72 221.44h-59.733v90.923c0 15.573-10.411 25.984-25.984 25.984s-25.984-10.411-25.984-25.984v-116.907c0-15.573 10.411-25.984 25.984-25.984h85.717c15.573 0 25.984 10.411 25.984 25.984s-10.411 25.984-25.984 25.984z" />
<glyph unicode="&#xe986;" glyph-name="download2" d="M910.805 359.382c-14.933 0-24.917-9.984-24.917-24.917v-194.432c0-37.376-29.909-67.285-67.285-67.285h-615.637c-37.376 0-67.285 29.909-67.285 67.285v194.432c0 14.933-9.984 24.917-24.917 24.917s-24.917-9.984-24.917-24.917v-194.432c0-64.811 52.352-117.163 117.163-117.163h615.637c64.811 0 117.163 52.352 117.163 117.163v194.432c0 14.933-9.984 24.917-24.917 24.917zM497.067 242.219c4.992-2.475 9.984-4.992 14.933-4.992s9.984 2.475 14.933 4.992l254.208 179.456c12.459 7.467 14.933 22.443 4.992 34.901-7.467 12.459-22.443 14.933-34.901 4.992l-214.357-152.021v496c0 14.933-9.984 24.917-24.917 24.917s-24.917-9.984-24.917-24.917v-496l-214.357 152.021c-12.459 7.467-27.435 4.992-34.901-4.992-7.467-12.459-4.992-27.435 4.992-34.901l254.208-179.456z" />
<glyph unicode="&#xe987;" glyph-name="edit" d="M870.784 682.24l-103.253 103.253c-33.536 33.536-87.765 33.536-121.344 0l-431.104-431.104c-5.163-5.163-15.488-15.488-82.603-237.483-5.163-20.651 0-41.301 12.928-56.789 10.325-10.325 25.813-15.488 38.699-15.488 5.163 0 10.325 0 15.488 2.56 221.995 69.675 232.32 77.44 237.483 82.603l431.104 431.104c15.488 15.488 25.813 38.741 25.813 61.952 2.56 23.211-7.765 43.904-23.211 59.392zM184.192 93.696c-2.56 0-2.56 0-5.163 0 0 0-2.56 2.56 0 5.163 20.651 61.952 41.301 129.067 56.789 172.928l123.904-123.904c-43.904-12.928-110.976-33.536-175.531-54.187zM408.747 173.696l-149.717 149.717 325.248 325.248 152.32-152.32-327.808-322.688zM834.688 597.035l-64.512-61.952-149.717 149.717 61.952 61.952c12.928 12.928 36.139 12.928 49.024 0l103.253-103.253c0 0 0 0 0 0 7.765-7.765 10.325-15.488 10.325-23.211s-5.163-15.488-10.325-23.211zM561.024 581.547l-232.32-232.32c-10.325-10.325-10.325-25.813 0-36.139 5.163-5.163 12.928-7.765 18.048-7.765s12.928 2.56 18.048 7.765l232.32 232.32c10.325 10.325 10.325 25.813 0 36.139s-25.813 10.325-36.139 0z" />
<glyph unicode="&#xe989;" glyph-name="edit3" d="M897.621 419.926c-14.123 0-25.6-11.477-25.6-25.6v-291.84c0-31.104-25.216-56.32-56.32-56.32h-604.16c-31.104 0-56.32 25.216-56.32 56.32v604.16c0 31.104 25.216 56.32 56.32 56.32h291.84c14.123 0 25.6 11.477 25.6 25.6s-11.477 25.6-25.6 25.6h-291.84c-59.349-0.128-107.392-48.171-107.52-107.52v-604.16c0.128-59.349 48.171-107.392 107.52-107.52h604.16c59.349 0.128 107.392 48.171 107.52 107.52v291.84c0 14.123-11.477 25.6-25.6 25.6zM939.221 849.579c-4.651 4.651-11.051 7.509-18.133 7.509s-13.483-2.859-18.133-7.509l-433.365-433.365c-4.651-4.651-7.509-11.051-7.509-18.133 0-14.165 11.477-25.643 25.643-25.643 7.083 0 13.483 2.859 18.133 7.509l433.365 433.365c4.651 4.651 7.509 11.051 7.509 18.133s-2.859 13.483-7.509 18.133z" />
<glyph unicode="&#xe98a;" glyph-name="email2" d="M960 196.267c0-71.68-56.32-128-128-128h-640c-71.68 0-128 56.32-128 128v460.8c0 71.68 56.32 128 128 128h640c71.68 0 128-56.32 128-128v-460.8zM883.2 657.067c0 28.16-23.040 51.2-51.2 51.2h-640c-28.16 0-51.2-23.040-51.2-51.2v-460.8c0-28.16 23.040-51.2 51.2-51.2h640c28.16 0 51.2 23.040 51.2 51.2v460.8zM504.32 308.907c-15.36 0-33.28 5.12-43.52 15.36l-256 225.28c-15.36 12.8-17.92 38.4-2.56 53.76 12.8 15.36 38.4 17.92 53.76 2.56l250.88-220.16 250.88 220.16c15.36 12.8 40.96 12.8 53.76-2.56s12.8-40.96-2.56-53.76l-256-225.28c-17.92-7.68-33.28-15.36-48.64-15.36z" />
<glyph unicode="&#xe98c;" glyph-name="employee" d="M905.387 794.155h-786.816c-54.187 0-98.944-44.757-98.944-98.944v-537.088c0-54.187 44.757-98.944 98.944-98.944h786.816c54.187 0 98.944 44.757 98.944 98.944v537.088c0 54.187-44.757 98.944-98.944 98.944zM957.227 158.123c0-28.245-23.552-51.84-51.84-51.84h-786.816c-28.245 0-51.84 23.552-51.84 51.84v537.088c0 28.245 23.552 51.84 51.84 51.84h786.816c28.245 0 51.84-23.552 51.84-51.84v-537.088zM384.811 433.75c23.552 21.205 37.675 51.84 37.675 84.821 0 63.616-51.84 115.413-115.413 115.413s-115.413-51.84-115.413-115.413c0-32.981 14.123-63.616 37.675-84.821-56.533-23.552-96.597-77.739-98.944-139.008 0-16.469 2.347-32.981 4.693-49.451 2.347-11.776 16.469-21.205 28.245-16.469 11.776 2.347 21.205 16.469 16.469 28.245-2.347 11.776-4.693 23.552-4.693 35.328 2.347 58.88 51.84 106.027 113.067 106.027h35.328c61.227 0 113.067-47.104 113.067-106.027 0-11.776 0-23.552-4.693-35.328-2.347-11.776 4.693-25.899 16.469-28.245 2.347 0 4.693 0 7.083 0 9.429 0 18.859 7.083 23.552 16.469 4.693 16.469 7.083 32.981 4.693 49.451 0 63.616-42.411 117.803-98.944 139.008zM307.072 450.219c-37.675 0-68.309 30.635-68.309 68.309s30.635 68.309 68.309 68.309 68.309-30.635 68.309-68.309-30.635-68.309-68.309-68.309zM867.712 577.451h-277.973c-14.123 0-23.552-9.429-23.552-23.552s9.429-23.552 23.552-23.552h277.973c14.123 0 23.552 9.429 23.552 23.552s-9.429 23.552-23.552 23.552zM867.712 466.731h-277.973c-14.123 0-23.552-9.429-23.552-23.552s9.429-23.552 23.552-23.552h277.973c14.123 0 23.552 9.429 23.552 23.552 0 11.776-9.429 23.552-23.552 23.552zM867.712 353.622h-277.973c-14.123 0-23.552-9.429-23.552-23.552s9.429-23.552 23.552-23.552h277.973c14.123 0 23.552 9.429 23.552 23.552s-9.429 23.552-23.552 23.552z" />
<glyph unicode="&#xe98d;" glyph-name="empty" d="M0 919.424l22.485 19.243 1004.757-1001.515-19.243-19.243-1007.957 1001.515z" />
<glyph unicode="&#xe98f;" glyph-name="fenzigongsi" d="M716.589 427.49l26.321 25.808 43.014-43.868-26.321-25.808-43.014 43.868zM581.632 938.667h-581.632l1024-1017.856v581.632l-442.368 436.224zM759.808 510.635l88.064-90.112-10.24-10.24-88.064 90.112 10.24 10.24zM456.704 647.851c-8.192-8.192-18.432-8.192-26.624 0l-24.576 24.576 8.192 12.288c6.144-8.192 14.336-16.384 22.528-24.576 4.096-4.096 8.192-4.096 14.336 0l43.008 43.008-59.392 61.44 10.24 10.24 59.392-61.44 20.48 20.48c20.48-6.144 38.912-8.192 61.44-10.24l-79.872 81.92 10.24 10.24 94.208-96.256-10.24-10.24c-22.528 0-45.056 4.096-69.632 8.192l-14.336-14.336 55.296-55.296-10.24-10.24-55.296 55.296-49.152-45.056zM632.832 486.059c4.096 16.384 8.192 30.72 12.288 45.056l12.288-6.144c-4.096-26.624-12.288-53.248-22.528-79.872l-14.336 6.144c2.048 6.144 6.144 14.336 8.192 20.48-28.672 22.528-61.44 47.104-94.208 77.824l8.192 12.288c18.432-6.144 55.296 2.048 112.64 24.576l6.144-14.336c-40.96-14.336-73.728-22.528-102.4-26.624 26.624-20.48 51.2-40.96 73.728-59.392zM579.584 613.035v14.336c34.816-2.048 69.632 6.144 106.496 24.576l6.144-14.336c-40.96-18.432-79.872-26.624-112.64-24.576zM720.896 608.939l14.336-4.096c-18.432-34.816-26.624-71.68-22.528-108.544h-16.384c-6.144 38.912 4.096 75.776 24.576 112.64zM741.376 471.723l63.488-63.488-45.056-45.056-63.488 63.488 45.056 45.056zM790.528 314.027c-10.24-10.24-20.48-10.24-30.72 0l-20.48 20.48 8.192 12.288 20.48-20.48c4.096-4.096 10.24-4.096 16.384 2.048l98.304 96.256-98.304 100.352 10.24 10.24 108.544-110.592-112.64-110.592z" />
<glyph unicode="&#xe990;" glyph-name="file_attendance" d="M954.709 330.283h-33.109v18.091c0 9.045-6.016 15.061-15.061 15.061s-15.061-6.016-15.061-15.061v-18.091h-174.677v18.091c0 9.045-6.016 15.061-15.061 15.061s-15.061-6.016-15.061-15.061v-18.091h-33.109c-24.107 0-45.184-21.077-45.184-45.184v-210.816c0-24.107 21.077-45.184 45.184-45.184h301.184c24.107 0 45.184 21.077 45.184 45.184v210.816c0 24.107-21.077 45.184-45.184 45.184zM653.568 300.16h301.184c9.045 0 15.061-6.016 15.061-15.061v-33.109h-331.307v33.109c0 9.045 6.016 15.061 15.061 15.061zM954.709 59.222h-301.184c-9.045 0-15.061 6.016-15.061 15.061v147.584h331.307v-147.584c0-9.045-6.016-15.061-15.061-15.061zM852.309 194.774l-60.245-60.245-39.168 39.168c-6.016 6.016-15.061 6.016-21.077 0s-6.016-15.061 0-21.077l48.171-48.171c3.029-3.029 9.045-3.029 12.032-3.029s9.045 0 12.032 3.029l69.291 69.291c6.016 6.016 6.016 15.061 0 21.077s-15.061 6.016-21.077 0zM527.061 68.267h-385.493c-30.123 0-57.216 24.107-57.216 57.216v418.645h849.323v-135.509c0-9.045 6.016-15.061 15.061-15.061s15.061 6.016 15.061 15.061v213.845c0 48.171-39.168 87.339-87.339 87.339h-346.368c-9.045 0-15.061 3.029-21.077 6.016l-30.123 42.155c-12.032 12.032-27.093 21.077-45.184 21.077h-292.139c-48.171 0-87.339-39.168-87.339-87.339v-569.216c0-48.171 39.168-87.339 87.339-87.339h385.493c9.045 0 15.061 9.045 15.061 18.091s-6.016 15.061-15.061 15.061zM141.568 751.958h292.139c9.045 0 15.061-3.029 21.077-9.045l30.123-42.155c12.032-12.032 27.093-21.077 45.184-21.077h346.368c30.123 0 57.216-24.107 57.216-57.216v-48.171h-849.323v120.491c0 33.109 24.107 57.216 57.216 57.216z" />
<glyph unicode="&#xe991;" glyph-name="file_salary" d="M524.032 92.374h-379.477c-30.123 0-57.216 24.107-57.216 57.216v415.616h840.277v-135.509c0-9.045 6.016-15.061 15.061-15.061s15.061 6.016 15.061 15.061v210.816c0 48.171-39.168 87.339-87.339 87.339h-343.339c-6.016 0-12.032 3.029-21.077 9.045l-30.123 42.155c-9.045 12.032-24.107 21.077-42.155 21.077h-289.109c-48.171 0-87.339-39.168-87.339-87.339v-563.2c0-48.171 39.168-87.339 87.339-87.339h382.507c6.016 0 12.032 6.016 12.032 15.061s-6.016 15.061-15.061 15.061zM144.555 770.006h292.139c6.016 0 12.032-3.029 18.091-9.045l30.123-42.155c9.045-12.032 24.107-21.077 42.155-21.077h343.339c30.123 0 57.216-24.107 57.216-57.216v-45.184h-840.277v117.461c0 30.123 24.107 57.216 57.216 57.216zM945.707 339.328h-268.032c-24.107 0-45.184-21.077-45.184-45.184v-186.709c0-24.107 21.077-45.184 45.184-45.184h268.032c24.107 0 45.184 18.091 45.184 45.184v186.709c0 24.107-21.077 45.184-45.184 45.184zM680.661 309.206h268.032c9.045 0 15.061-6.016 15.061-15.061v-42.155h-298.155v42.155c0 9.045 6.016 15.061 15.061 15.061zM948.693 92.374h-268.032c-9.045 0-15.061 6.016-15.061 15.061v114.432h298.155v-114.432c0-9.045-6.016-15.061-15.061-15.061z" />
<glyph unicode="&#xe992;" glyph-name="file_social_security" d="M822.229 378.496v15.061c0 9.045-6.016 15.061-15.061 15.061s-15.061-6.016-15.061-15.061v-15.061c-96.384-9.045-171.691-87.339-171.691-186.709 0-9.045 6.016-15.061 15.061-15.061h156.629v-117.461c0-12.032-9.045-21.077-21.077-21.077s-21.077 9.045-21.077 21.077c0 9.045-6.016 15.061-15.061 15.061s-15.061-6.016-15.061-15.061c0-27.093 21.077-51.2 51.2-51.2 27.093 0 51.2 24.107 51.2 51.2v117.461h153.6c9.045 0 15.061 6.016 18.091 15.061 0 96.384-75.307 177.707-171.691 186.709zM780.032 345.344l-51.2-138.539h-75.307c6.016 69.291 60.245 123.477 126.507 138.539zM764.971 206.806l42.155 111.445 42.155-111.445h-84.309zM879.445 206.806l-51.2 138.539c69.291-9.045 126.507-66.261 135.509-138.539h-84.309zM545.109 83.328h-394.539c-33.109 0-60.245 27.093-60.245 60.245v430.677h870.4v-141.568c0-9.045 6.016-15.061 15.061-15.061s15.061 6.016 15.061 15.061v219.861c0 51.2-39.168 90.368-90.368 90.368h-355.371c-6.016 0-15.061 3.029-18.091 12.032l-33.109 42.155c-12.032 12.032-27.093 21.077-45.184 21.077h-298.155c-51.2 0-90.368-39.168-90.368-90.368v-584.277c0-51.2 39.168-90.368 90.368-90.368h394.539c6.016 0 15.061 6.016 15.061 15.061s-6.016 15.061-15.061 15.061zM150.571 788.096h298.155c9.045 0 15.061-3.029 21.077-9.045l30.123-45.184c12.032-12.032 27.093-21.077 45.184-21.077h355.371c33.109 0 60.245-27.093 60.245-60.245v-48.171h-870.4v123.477c0 33.109 27.093 60.245 60.245 60.245z" />
<glyph unicode="&#xe993;" glyph-name="file" d="M604.928 502.443c28.587 25.728 48.597 65.749 48.597 105.813 0 80.043-65.749 142.976-142.976 142.976s-142.976-65.749-142.976-142.976c0-42.88 20.011-80.043 48.597-105.813-71.467-28.587-122.965-97.195-125.824-174.421 0-20.011 2.859-40.021 8.576-60.032 2.859-14.293 20.011-22.869 34.304-20.011s25.728 20.011 20.011 34.304c-2.859 14.293-5.717 31.445-5.717 45.739 2.859 74.325 65.749 134.4 145.835 134.4h40.021c77.184 0 142.976-60.032 145.835-134.4 0-14.293-2.859-31.445-5.717-45.739s5.717-31.445 20.011-34.304c2.859 0 5.717 0 8.576 0 11.435 0 22.869 8.576 28.587 20.011 5.717 20.011 8.576 40.021 8.576 60.032-8.576 77.184-60.032 145.835-134.4 174.421zM510.592 522.454c-48.597 0-85.76 40.021-85.76 85.76s40.021 85.76 85.76 85.76 85.76-40.021 85.76-85.76-37.163-85.76-85.76-85.76zM930.901 113.579c-11.435 11.435-28.587 11.435-40.021 0l-145.835-145.835c-11.435-11.435-11.435-28.587 0-40.021 5.717-5.717 14.293-8.576 20.011-8.576s14.293 2.859 20.011 8.576l145.835 145.835c11.435 11.435 11.435 28.587 0 40.021zM910.891 136.448c17.152 0 28.587 11.435 28.587 28.587v669.056c0 25.728-11.435 51.456-28.587 71.467-20.011 20.011-45.739 28.587-71.467 28.587h-657.621c-25.728 0-51.456-11.435-71.467-28.587-20.011-20.011-28.587-45.739-28.587-71.467v-814.891c0-28.587 11.435-51.456 28.587-71.467 20.011-20.011 45.739-28.587 71.467-28.587h511.829c17.152 0 28.587 11.435 28.587 28.587v145.835c0 11.435 5.717 22.869 14.293 31.445 0 0 0 0 0 0 8.576 8.576 20.011 14.293 31.445 14.293h142.976zM693.589 165.035c-20.011-20.011-28.587-45.739-28.587-71.467v-117.248h-483.2c-11.435 0-22.869 5.717-31.445 14.293s-14.293 20.011-14.293 31.445v812.032c0 11.435 5.717 22.869 14.293 31.445s20.011 14.293 31.445 14.293h657.621c11.435 0 22.869-5.717 31.445-14.293s14.293-20.011 14.293-31.445v-640.469h-117.248c-28.587 0-54.315-8.576-74.325-28.587z" />
<glyph unicode="&#xe994;" glyph-name="framework" d="M926.123 272.043h-52.011v106.283c-0.128 41.088-33.451 74.368-74.539 74.368-0.299 0-0.597 0-0.853 0h-266.197v128.597h96.469c17.408 0 31.531 14.123 31.531 31.531v144.981c-0.085 16.981-13.611 30.763-30.464 31.317h-234.155c-17.408 0-31.531-14.123-31.531-31.531v-144.811c0-17.408 14.123-31.531 31.531-31.531h95.659v-128.597h-266.24c-41.003-0.128-74.24-33.323-74.325-74.325v-106.283h-53.035c-17.408 0-31.531-14.123-31.531-31.531v-144.811c0-17.408 14.123-31.531 31.531-31.531h144.811c17.408 0 31.531 14.123 31.531 31.531v144.811c0 17.408-14.123 31.531-31.531 31.531h-51.797v106.283c0.128 18.475 15.104 33.408 33.579 33.408 0.299 0 0.555 0 0.853 0h266.197v-139.861h-50.987c-17.067-0.341-30.805-14.208-30.933-31.317v-144.811c0-17.408 14.123-31.531 31.531-31.531h144.811c17.408 0 31.531 14.123 31.531 31.531v144.811c0 17.408-14.123 31.531-31.531 31.531h-53.461v139.691h266.24c18.389-0.128 33.28-14.976 33.365-33.365v-106.283h-50.773c-17.408 0-31.531-14.123-31.531-31.531v-144.811c0-17.408 14.123-31.531 31.531-31.531h144.811c17.408 0 31.531 14.123 31.531 31.531v144.811c0 17.408-14.123 31.531-31.531 31.531z" />
<glyph unicode="&#xe995;" glyph-name="fullscreen" d="M889.557 449.28h-700.843l361.728 361.728c9.045 9.045 9.045 22.613 0 31.659s-22.613 9.045-31.659 0l-400.171-400.171c0 0-2.261-2.261-2.261-4.523s-2.261-2.261-2.261-4.523-2.261-6.784-2.261-9.045c0-2.261 0-6.784 2.261-9.045 0-2.261 2.261-2.261 2.261-2.261 0-2.261 2.261-2.261 2.261-4.523l400.171-400.171c4.523-4.523 11.307-6.784 15.829-6.784s11.307 2.261 15.829 6.784c9.045 9.045 9.045 22.613 0 31.659l-361.728 361.728h698.581c13.568 0 22.613 9.045 22.613 22.613s-9.045 24.875-20.352 24.875z" />
<glyph unicode="&#xe9bf;" glyph-name="group1" d="M694.613 598.614l32.171 31.573 45.909-46.763-32.171-31.573-45.909 46.763zM649.685 463.531l-45.909 46.805 33.621 32.981 45.909-46.805-33.621-32.981zM695.808 508.587l-45.867 46.805 33.621 32.981 45.867-46.805-33.621-32.981zM585.728 938.667h-581.632l1019.904-1013.76v581.632l-438.272 432.128zM563.2 629.419c4.096-2.048 6.144-2.048 10.24-2.048 14.336 0 32.768 2.048 59.392 8.192-12.288 8.192-22.528 18.432-34.816 26.624l8.192 14.336c2.048-2.048 6.144-2.048 10.24 0 24.576 4.096 51.2 12.288 79.872 24.576l6.144-16.384c-30.72-12.288-57.344-18.432-79.872-22.528 8.192-8.192 18.432-14.336 28.672-22.528 10.24 2.048 20.48 6.144 32.768 8.192l6.144-16.384c-47.104-12.288-81.92-20.48-104.448-20.48 16.384-10.24 32.768-18.432 49.152-26.624l-12.288-12.288c-24.576 12.288-49.152 26.624-67.584 40.96l8.192 16.384zM524.288 596.651c26.624-18.432 51.2-30.72 75.776-40.96l-12.288-12.288c-24.576 8.192-49.152 22.528-73.728 38.912l10.24 14.336zM675.84 436.907l-12.288-12.288-100.352 100.352 12.288 12.288 14.336-14.336 135.168 131.072 69.632-71.68-133.12-131.072 14.336-14.336z" />
<glyph unicode="&#xe9c0;" glyph-name="hidden" d="M669.739 361.728c-51.029-20.864-104.405-30.165-157.739-30.165-227.328 0-366.549 176.299-415.232 250.539-4.651 6.955-4.651 16.256 0 23.211 23.211 34.816 74.24 104.405 150.784 160.085 9.259 6.955 11.605 23.211 4.651 32.469s-23.211 11.605-32.469 4.651c-83.499-60.331-136.875-134.528-162.389-171.691-13.909-23.211-13.909-51.029 0-74.24 53.376-81.195 204.16-271.403 454.699-271.403 60.331 0 118.315 11.605 173.995 32.469 11.605 4.651 18.56 18.56 13.909 30.165-4.651 13.909-18.56 18.56-30.165 13.909zM966.699 633.131c-53.376 81.195-204.16 271.403-454.699 271.403-60.331 0-118.315-11.605-173.995-32.469-11.605-4.651-18.56-18.56-13.909-30.165s18.56-18.56 30.165-13.909c51.029 20.864 104.405 30.165 157.739 30.165 227.328 0 366.549-176.299 415.232-250.539 4.651-6.955 4.651-16.256 0-23.211-23.211-34.816-74.24-104.405-150.784-160.085-9.259-6.955-11.605-23.211-4.651-32.469 4.651-6.955 11.605-9.259 18.56-9.259 4.651 0 9.259 2.304 13.909 4.651 83.499 60.331 136.875 134.528 162.389 171.691 13.909 20.864 13.909 51.029 0 74.24zM293.931 25.344c0-41.003-33.237-74.24-74.24-74.24s-74.24 33.237-74.24 74.24c0 41.003 33.237 74.24 74.24 74.24s74.24-33.237 74.24-74.24zM586.24 25.344c0-41.003-33.237-74.24-74.24-74.24s-74.24 33.237-74.24 74.24c0 41.003 33.237 74.24 74.24 74.24s74.24-33.237 74.24-74.24zM878.549 25.344c0-41.003-33.237-74.24-74.24-74.24s-74.24 33.237-74.24 74.24c0 41.003 33.237 74.24 74.24 74.24s74.24-33.237 74.24-74.24zM781.099 292.139c4.651-4.651 11.605-6.955 16.256-6.955s11.605 2.304 16.256 6.955c9.259 9.259 9.259 23.211 0 32.469l-570.667 573.013c-9.259 9.259-23.211 9.259-32.469 0s-9.259-23.211 0-32.469l570.667-573.013z" />
<glyph unicode="&#xe9c1;" glyph-name="home" d="M569.643 382.848h-119.893c-29.952 0-53.035-23.040-53.035-53.035v-219.008c0-13.824 9.216-23.040 23.040-23.040s23.040 9.216 23.040 23.040v219.008c0 4.608 2.304 6.912 6.912 6.912h119.893c4.608 0 6.912-2.304 6.912-6.912v-219.008c0-13.824 9.216-23.040 23.040-23.040s23.040 9.216 23.040 23.040v219.008c0 29.952-25.344 53.035-53.035 53.035zM984.619 458.966l-426.496 378.069c-25.344 23.040-64.555 23.040-92.203 0l-426.496-378.069c-16.128-13.824-23.040-36.864-13.824-57.643 6.912-20.736 25.344-34.56 48.427-34.56h55.339v-306.603c0-32.299 27.648-59.947 59.947-59.947h654.72c25.344 0 46.123 20.736 46.123 46.123v320.427h59.947c23.040 0 41.515 13.824 48.427 34.56 9.216 20.736 4.608 43.819-13.824 57.643zM956.928 417.451c0-2.304-2.304-4.608-6.912-4.608h-82.987c-13.824 0-23.040-9.216-23.040-23.040v-343.509h-654.72c-6.912 0-13.824 6.912-13.824 13.824v329.685c0 13.824-9.216 23.040-23.040 23.040h-78.379c-4.608 0-4.608 2.304-6.912 4.608 0 2.304 0 4.608 2.304 6.912l426.496 378.069c4.608 4.608 9.216 4.608 16.128 4.608 4.608 0 11.52-2.304 16.128-4.608v0l428.8-378.069c0-2.304 0-4.608 0-6.912zM694.144 760.96h66.859v-55.339c0-13.824 9.216-23.040 23.040-23.040s23.040 9.216 23.040 23.040v78.379c0 13.824-9.216 23.040-23.040 23.040h-89.899c-13.824 0-23.040-9.216-23.040-23.040s11.52-23.040 23.040-23.040z" />
<glyph unicode="&#xe9c3;" glyph-name="Import" d="M560.469 335.446h-242.261c-17.109 0-28.501-11.392-28.501-28.501s11.392-28.501 28.501-28.501h310.656c17.109 0 28.501 11.392 28.501 28.501v313.515c0 17.109-11.392 28.501-28.501 28.501s-28.501-11.392-28.501-28.501v-242.261l-475.947 475.947c-11.392 11.392-28.501 11.392-39.893 0s-11.392-28.501 0-39.893l475.947-478.805zM797.013 882.646h-364.8c-17.109 0-28.501-11.392-28.501-28.501s11.392-28.501 28.501-28.501h364.8c62.72 0 114.005-51.285 114.005-114.005v-569.984c0-62.72-51.285-114.005-114.005-114.005h-569.984c-62.72 0-114.005 51.285-114.005 114.005v364.8c0 17.109-11.392 28.501-28.501 28.501s-28.501-11.392-28.501-28.501v-364.8c0-94.037 76.971-171.008 171.008-171.008h569.984c94.037 0 171.008 76.971 171.008 171.008v569.984c0 94.037-76.971 171.008-171.008 171.008z" />
<glyph unicode="&#xe9c6;" glyph-name="insurance" d="M996.295 393.357c-44.414 222.16-235.484 386.539-462.044 395.421v24.428c0 13.324-8.882 22.206-22.206 22.206s-22.206-8.882-22.206-22.206v-24.428c-224.383-8.882-417.629-173.261-462.044-395.421-4.442-17.766 4.442-37.752 19.986-46.634 6.662-4.442 15.544-6.662 22.206-6.662 8.882 0 19.986 2.22 26.648 8.882 28.871 22.206 59.958 33.31 93.314 33.31 44.414 0 73.328-17.766 106.638-66.62 8.882-13.324 22.206-19.986 37.752-19.986s28.871 6.662 37.752 19.986c22.206 33.31 71.108 57.738 119.965 64.4v-277.679c0-22.206-19.986-42.195-42.195-42.195s-42.195 17.766-42.195 42.195c0 13.324-8.882 22.206-22.206 22.206s-22.206-8.882-22.206-22.206c0-46.634 37.752-86.652 86.652-86.652 46.634 0 86.652 37.752 86.652 86.652v277.679c48.857-6.662 97.756-33.31 119.965-64.4 8.882-13.324 22.206-19.986 37.752-19.986s28.871 6.662 37.752 19.986c31.090 48.857 62.181 66.62 106.638 66.62 33.31 0 64.4-11.104 91.094-31.090 8.882-6.662 17.766-8.882 26.648-8.882s15.544 2.22 22.206 6.662c13.324 8.882 19.986 26.648 17.766 44.414zM312.091 368.929c-31.090 35.533-66.62 57.738-122.184 57.738-44.414 0-84.432-15.544-117.742-42.195 37.752 186.585 191.027 330.975 382.097 357.668-55.519-48.857-135.508-157.714-142.17-373.215zM512 426.667c-55.519 0-117.742-24.428-155.494-59.958 4.442 148.832 46.634 239.926 82.212 291.003 28.871 42.195 57.738 64.4 73.328 73.328 15.544-8.882 44.414-31.090 73.328-73.328 35.533-51.076 77.77-142.17 82.212-291.003-37.752 35.533-99.976 59.958-155.494 59.958zM834.093 426.667c-53.296 0-91.094-22.206-122.184-57.738-6.662 215.498-88.874 324.313-142.17 373.215 191.027-24.428 344.344-168.818 382.097-357.668-33.31 26.648-73.328 42.195-117.742 42.195z" />
</font>
</defs>
</svg>
